<svg xmlns="http://www.w3.org/2000/svg" xmlns:xlink="http://www.w3.org/1999/xlink" width="150" zoomAndPan="magnify" viewBox="0 0 112.5 112.499997" height="150" preserveAspectRatio="xMidYMid meet" version="1.0"><defs><g/><clipPath id="00642ee506"><path d="M 6.085938 37.199219 L 36.835938 37.199219 L 36.835938 67.949219 L 6.085938 67.949219 Z M 6.085938 37.199219 " clip-rule="nonzero"/></clipPath><clipPath id="02bf5274a7"><path d="M 35 59 L 36.835938 59 L 36.835938 61 L 35 61 Z M 35 59 " clip-rule="nonzero"/></clipPath><clipPath id="0be159adaf"><path d="M 28 37.199219 L 30 37.199219 L 30 39 L 28 39 Z M 28 37.199219 " clip-rule="nonzero"/></clipPath><clipPath id="08f33c641d"><path d="M 6.085938 44 L 8 44 L 8 46 L 6.085938 46 Z M 6.085938 44 " clip-rule="nonzero"/></clipPath><clipPath id="97ca09cb69"><path d="M 13 66 L 15 66 L 15 67.949219 L 13 67.949219 Z M 13 66 " clip-rule="nonzero"/></clipPath><clipPath id="350c5375ea"><path d="M 13.273438 44.269531 L 29.023438 44.269531 L 29.023438 60.019531 L 13.273438 60.019531 Z M 13.273438 44.269531 " clip-rule="nonzero"/></clipPath></defs><path fill="#000000" d="M 22.394531 54.59375 C 22.820312 54.296875 23.074219 53.808594 23.074219 53.28125 C 23.074219 52.390625 22.347656 51.664062 21.457031 51.664062 C 20.566406 51.664062 19.84375 52.390625 19.84375 53.28125 C 19.84375 53.808594 20.101562 54.296875 20.523438 54.59375 L 20.191406 55.921875 C 20.167969 56.011719 20.195312 56.105469 20.257812 56.171875 C 20.476562 56.390625 20.96875 56.5 21.457031 56.5 C 21.949219 56.5 22.441406 56.390625 22.660156 56.171875 C 22.722656 56.105469 22.75 56.011719 22.726562 55.925781 Z M 21.84375 54.535156 L 22.175781 55.875 C 21.84375 56.019531 21.074219 56.019531 20.742188 55.875 L 21.078125 54.535156 C 21.105469 54.417969 21.050781 54.296875 20.945312 54.242188 C 20.589844 54.054688 20.367188 53.683594 20.367188 53.28125 C 20.367188 52.675781 20.855469 52.1875 21.457031 52.1875 C 22.0625 52.1875 22.550781 52.675781 22.550781 53.28125 C 22.550781 53.683594 22.332031 54.054688 21.976562 54.242188 C 21.867188 54.300781 21.816406 54.417969 21.84375 54.535156 Z M 21.84375 54.535156 " fill-opacity="1" fill-rule="nonzero"/><path fill="#000000" d="M 25.902344 49.738281 L 25.71875 49.738281 L 25.71875 49.128906 C 25.71875 47.988281 25.277344 46.917969 24.472656 46.117188 C 23.667969 45.3125 22.597656 44.867188 21.457031 44.867188 C 20.324219 44.867188 19.253906 45.3125 18.445312 46.117188 C 17.640625 46.921875 17.195312 47.992188 17.195312 49.128906 L 17.195312 49.738281 L 17.015625 49.738281 C 16.378906 49.738281 15.863281 50.253906 15.863281 50.886719 L 15.863281 53.554688 C 15.863281 56.640625 18.375 59.152344 21.457031 59.152344 C 24.542969 59.152344 27.054688 56.640625 27.054688 53.554688 L 27.054688 50.886719 C 27.054688 50.253906 26.539062 49.738281 25.902344 49.738281 Z M 17.71875 49.128906 C 17.71875 48.128906 18.105469 47.191406 18.8125 46.484375 C 19.523438 45.777344 20.460938 45.390625 21.457031 45.390625 C 22.457031 45.390625 23.398438 45.777344 24.105469 46.484375 C 24.808594 47.1875 25.195312 48.125 25.195312 49.128906 L 25.195312 49.738281 L 24.164062 49.738281 L 24.164062 49.128906 C 24.164062 47.636719 22.953125 46.421875 21.460938 46.421875 C 19.96875 46.421875 18.753906 47.636719 18.753906 49.128906 L 18.753906 49.738281 L 17.71875 49.738281 Z M 23.644531 49.128906 L 23.644531 49.738281 L 19.277344 49.738281 L 19.277344 49.128906 C 19.277344 47.925781 20.253906 46.945312 21.460938 46.945312 C 22.664062 46.945312 23.644531 47.925781 23.644531 49.128906 Z M 26.53125 53.554688 C 26.53125 56.355469 24.253906 58.628906 21.457031 58.628906 C 18.664062 58.628906 16.386719 56.355469 16.386719 53.554688 L 16.386719 50.886719 C 16.386719 50.542969 16.667969 50.261719 17.015625 50.261719 L 25.902344 50.261719 C 26.25 50.261719 26.53125 50.542969 26.53125 50.886719 Z M 26.53125 53.554688 " fill-opacity="1" fill-rule="nonzero"/><g clip-path="url(#00642ee506)"><path fill="#000000" d="M 36.011719 58.902344 L 36.011719 55.699219 C 36.011719 55.554688 35.894531 55.4375 35.753906 55.4375 L 31.410156 55.4375 C 31.695312 54.605469 31.882812 53.726562 31.953125 52.816406 L 33.601562 52.816406 C 33.71875 53.285156 34.144531 53.636719 34.652344 53.636719 C 35.25 53.636719 35.738281 53.152344 35.738281 52.554688 C 35.738281 51.957031 35.25 51.472656 34.652344 51.472656 C 34.144531 51.472656 33.71875 51.820312 33.601562 52.292969 L 31.980469 52.292969 C 31.980469 52.199219 31.984375 52.105469 31.984375 52.011719 C 31.984375 51.230469 31.898438 50.472656 31.734375 49.738281 L 33.832031 49.738281 C 33.976562 49.738281 34.09375 49.621094 34.09375 49.476562 L 34.09375 46.777344 C 34.5625 46.660156 34.914062 46.238281 34.914062 45.730469 C 34.914062 45.132812 34.429688 44.644531 33.832031 44.644531 C 33.234375 44.644531 32.746094 45.132812 32.746094 45.730469 C 32.746094 46.238281 33.097656 46.664062 33.570312 46.777344 L 33.570312 49.214844 L 31.605469 49.214844 C 30.679688 45.855469 28.125 43.164062 24.847656 42.046875 L 24.847656 38.542969 L 27.789062 38.542969 C 27.90625 39.011719 28.332031 39.363281 28.839844 39.363281 C 29.4375 39.363281 29.921875 38.878906 29.921875 38.28125 C 29.921875 37.683594 29.4375 37.199219 28.839844 37.199219 C 28.332031 37.199219 27.90625 37.546875 27.789062 38.019531 L 24.585938 38.019531 C 24.441406 38.019531 24.324219 38.136719 24.324219 38.28125 L 24.324219 41.882812 C 23.488281 41.644531 22.609375 41.511719 21.703125 41.488281 L 21.703125 40.429688 C 22.171875 40.3125 22.523438 39.886719 22.523438 39.378906 C 22.523438 38.78125 22.039062 38.296875 21.441406 38.296875 C 20.84375 38.296875 20.359375 38.78125 20.359375 39.378906 C 20.359375 39.886719 20.707031 40.3125 21.179688 40.429688 L 21.179688 41.488281 C 20.296875 41.511719 19.441406 41.644531 18.625 41.875 L 18.625 40.203125 C 18.625 40.058594 18.507812 39.941406 18.363281 39.941406 L 15.667969 39.941406 C 15.550781 39.46875 15.125 39.117188 14.617188 39.117188 C 14.019531 39.117188 13.53125 39.605469 13.53125 40.203125 C 13.53125 40.800781 14.019531 41.285156 14.617188 41.285156 C 15.125 41.285156 15.546875 40.933594 15.667969 40.460938 L 18.101562 40.460938 L 18.101562 42.035156 C 14.820312 43.144531 12.257812 45.828125 11.320312 49.183594 L 7.429688 49.183594 L 7.429688 46.246094 C 7.898438 46.125 8.25 45.703125 8.25 45.195312 C 8.25 44.597656 7.765625 44.109375 7.167969 44.109375 C 6.570312 44.109375 6.085938 44.597656 6.085938 45.195312 C 6.085938 45.703125 6.433594 46.125 6.90625 46.246094 L 6.90625 49.445312 C 6.90625 49.589844 7.023438 49.707031 7.167969 49.707031 L 11.191406 49.707031 C 11.023438 50.449219 10.9375 51.21875 10.9375 52.011719 C 10.9375 52.117188 10.9375 52.222656 10.941406 52.332031 L 9.316406 52.332031 C 9.199219 51.859375 8.773438 51.507812 8.265625 51.507812 C 7.667969 51.507812 7.183594 51.996094 7.183594 52.59375 C 7.183594 53.191406 7.667969 53.675781 8.265625 53.675781 C 8.773438 53.675781 9.199219 53.324219 9.316406 52.851562 L 10.96875 52.851562 C 11.039062 53.738281 11.222656 54.59375 11.5 55.40625 L 9.089844 55.40625 C 8.945312 55.40625 8.828125 55.523438 8.828125 55.667969 L 8.828125 58.367188 C 8.355469 58.484375 8.003906 58.910156 8.003906 59.417969 C 8.003906 60.015625 8.492188 60.5 9.089844 60.5 C 9.6875 60.5 10.171875 60.015625 10.171875 59.417969 C 10.171875 58.910156 9.820312 58.484375 9.351562 58.367188 L 9.351562 55.929688 L 11.695312 55.929688 C 12.832031 58.757812 15.167969 60.984375 18.070312 61.972656 L 18.070312 66.605469 L 15.128906 66.605469 C 15.011719 66.132812 14.585938 65.78125 14.082031 65.78125 C 13.484375 65.78125 12.996094 66.265625 12.996094 66.867188 C 12.996094 67.460938 13.484375 67.949219 14.082031 67.949219 C 14.585938 67.949219 15.011719 67.597656 15.128906 67.125 L 18.332031 67.125 C 18.476562 67.125 18.59375 67.007812 18.59375 66.863281 L 18.59375 62.136719 C 19.429688 62.375 20.308594 62.511719 21.21875 62.53125 L 21.21875 64.714844 C 20.746094 64.832031 20.394531 65.257812 20.394531 65.765625 C 20.394531 66.363281 20.882812 66.851562 21.480469 66.851562 C 22.078125 66.851562 22.5625 66.363281 22.5625 65.765625 C 22.5625 65.257812 22.210938 64.832031 21.738281 64.714844 L 21.738281 62.53125 C 22.621094 62.507812 23.476562 62.375 24.292969 62.144531 L 24.292969 64.945312 C 24.292969 64.996094 24.308594 65.046875 24.335938 65.089844 C 24.339844 65.09375 24.34375 65.097656 24.347656 65.101562 C 24.355469 65.113281 24.363281 65.121094 24.371094 65.128906 C 24.417969 65.175781 24.484375 65.207031 24.554688 65.207031 L 27.253906 65.207031 C 27.371094 65.675781 27.796875 66.027344 28.304688 66.027344 C 28.902344 66.027344 29.386719 65.542969 29.386719 64.945312 C 29.386719 64.347656 28.902344 63.859375 28.304688 63.859375 C 27.796875 63.859375 27.371094 64.210938 27.253906 64.683594 L 24.816406 64.683594 L 24.816406 61.984375 C 27.722656 61.003906 30.0625 58.785156 31.210938 55.960938 L 35.492188 55.960938 L 35.492188 58.902344 C 35.019531 59.019531 34.667969 59.445312 34.667969 59.953125 C 34.667969 60.550781 35.15625 61.035156 35.753906 61.035156 C 36.347656 61.035156 36.835938 60.550781 36.835938 59.953125 C 36.835938 59.445312 36.484375 59.019531 36.011719 58.902344 Z M 34.09375 52.554688 C 34.09375 52.242188 34.34375 51.992188 34.652344 51.992188 C 34.960938 51.992188 35.214844 52.246094 35.214844 52.554688 C 35.214844 52.863281 34.960938 53.117188 34.652344 53.117188 C 34.34375 53.117188 34.09375 52.863281 34.09375 52.554688 Z M 33.269531 45.730469 C 33.269531 45.421875 33.519531 45.167969 33.832031 45.167969 C 34.140625 45.167969 34.390625 45.421875 34.390625 45.730469 C 34.390625 46.039062 34.140625 46.289062 33.832031 46.289062 C 33.519531 46.289062 33.269531 46.039062 33.269531 45.730469 Z M 28.839844 37.71875 C 29.148438 37.71875 29.398438 37.972656 29.398438 38.28125 C 29.398438 38.589844 29.148438 38.84375 28.839844 38.84375 C 28.53125 38.84375 28.277344 38.589844 28.277344 38.28125 C 28.277344 37.972656 28.527344 37.71875 28.839844 37.71875 Z M 14.617188 40.761719 C 14.308594 40.761719 14.054688 40.511719 14.054688 40.203125 C 14.054688 39.890625 14.308594 39.640625 14.617188 39.640625 C 14.925781 39.640625 15.175781 39.890625 15.175781 40.203125 C 15.175781 40.511719 14.925781 40.761719 14.617188 40.761719 Z M 6.605469 45.195312 C 6.605469 44.882812 6.859375 44.632812 7.167969 44.632812 C 7.476562 44.632812 7.730469 44.882812 7.730469 45.195312 C 7.730469 45.503906 7.476562 45.753906 7.167969 45.753906 C 6.859375 45.753906 6.605469 45.503906 6.605469 45.195312 Z M 8.265625 53.152344 C 7.957031 53.152344 7.707031 52.902344 7.707031 52.59375 C 7.707031 52.28125 7.957031 52.03125 8.265625 52.03125 C 8.574219 52.03125 8.828125 52.28125 8.828125 52.59375 C 8.828125 52.902344 8.574219 53.152344 8.265625 53.152344 Z M 9.648438 59.417969 C 9.648438 59.726562 9.398438 59.976562 9.089844 59.976562 C 8.777344 59.976562 8.527344 59.726562 8.527344 59.417969 C 8.527344 59.105469 8.777344 58.855469 9.089844 58.855469 C 9.398438 58.855469 9.648438 59.105469 9.648438 59.417969 Z M 14.082031 67.425781 C 13.769531 67.425781 13.519531 67.175781 13.519531 66.867188 C 13.519531 66.554688 13.769531 66.304688 14.082031 66.304688 C 14.390625 66.304688 14.640625 66.554688 14.640625 66.867188 C 14.640625 67.175781 14.390625 67.425781 14.082031 67.425781 Z M 28.304688 64.382812 C 28.613281 64.382812 28.863281 64.632812 28.863281 64.945312 C 28.863281 65.253906 28.613281 65.503906 28.304688 65.503906 C 27.992188 65.503906 27.742188 65.253906 27.742188 64.945312 C 27.742188 64.636719 27.992188 64.382812 28.304688 64.382812 Z M 20.878906 39.378906 C 20.878906 39.070312 21.132812 38.816406 21.441406 38.816406 C 21.75 38.816406 22.003906 39.070312 22.003906 39.378906 C 22.003906 39.6875 21.75 39.941406 21.441406 39.941406 C 21.132812 39.941406 20.878906 39.6875 20.878906 39.378906 Z M 22.039062 65.765625 C 22.039062 66.074219 21.789062 66.328125 21.480469 66.328125 C 21.167969 66.328125 20.917969 66.074219 20.917969 65.765625 C 20.917969 65.457031 21.167969 65.207031 21.476562 65.207031 C 21.476562 65.207031 21.476562 65.207031 21.480469 65.207031 C 21.789062 65.207031 22.039062 65.457031 22.039062 65.765625 Z M 21.460938 62.011719 C 15.945312 62.011719 11.457031 57.523438 11.457031 52.011719 C 11.457031 46.496094 15.945312 42.007812 21.460938 42.007812 C 26.976562 42.007812 31.460938 46.496094 31.460938 52.011719 C 31.460938 57.523438 26.976562 62.011719 21.460938 62.011719 Z M 35.753906 60.511719 C 35.441406 60.511719 35.191406 60.261719 35.191406 59.953125 C 35.191406 59.640625 35.441406 59.390625 35.753906 59.390625 C 36.0625 59.390625 36.3125 59.640625 36.3125 59.953125 C 36.3125 60.261719 36.0625 60.511719 35.753906 60.511719 Z M 35.753906 60.511719 " fill-opacity="1" fill-rule="nonzero"/></g><g clip-path="url(#02bf5274a7)"><path fill="#0873c1" d="M 36.3125 59.953125 C 36.3125 60.261719 36.0625 60.511719 35.753906 60.511719 C 35.441406 60.511719 35.191406 60.261719 35.191406 59.953125 C 35.191406 59.640625 35.441406 59.390625 35.753906 59.390625 C 36.0625 59.390625 36.3125 59.640625 36.3125 59.953125 Z M 36.3125 59.953125 " fill-opacity="1" fill-rule="nonzero"/></g><path fill="#0873c1" d="M 35.214844 52.554688 C 35.214844 52.863281 34.960938 53.117188 34.652344 53.117188 C 34.34375 53.117188 34.09375 52.863281 34.09375 52.554688 C 34.09375 52.242188 34.34375 51.992188 34.652344 51.992188 C 34.960938 51.992188 35.214844 52.246094 35.214844 52.554688 Z M 35.214844 52.554688 " fill-opacity="1" fill-rule="nonzero"/><path fill="#0873c1" d="M 34.390625 45.730469 C 34.390625 46.039062 34.140625 46.289062 33.832031 46.289062 C 33.519531 46.289062 33.269531 46.039062 33.269531 45.730469 C 33.269531 45.421875 33.519531 45.167969 33.832031 45.167969 C 34.140625 45.167969 34.390625 45.421875 34.390625 45.730469 Z M 34.390625 45.730469 " fill-opacity="1" fill-rule="nonzero"/><g clip-path="url(#0be159adaf)"><path fill="#0873c1" d="M 29.398438 38.28125 C 29.398438 38.589844 29.148438 38.84375 28.839844 38.84375 C 28.527344 38.84375 28.277344 38.589844 28.277344 38.28125 C 28.277344 37.972656 28.527344 37.71875 28.839844 37.71875 C 29.148438 37.71875 29.398438 37.972656 29.398438 38.28125 Z M 29.398438 38.28125 " fill-opacity="1" fill-rule="nonzero"/></g><path fill="#0873c1" d="M 22.003906 39.378906 C 22.003906 39.6875 21.75 39.941406 21.441406 39.941406 C 21.132812 39.941406 20.878906 39.6875 20.878906 39.378906 C 20.878906 39.070312 21.132812 38.816406 21.441406 38.816406 C 21.75 38.816406 22.003906 39.070312 22.003906 39.378906 Z M 22.003906 39.378906 " fill-opacity="1" fill-rule="nonzero"/><path fill="#0873c1" d="M 15.175781 40.203125 C 15.175781 40.511719 14.925781 40.761719 14.617188 40.761719 C 14.308594 40.761719 14.054688 40.511719 14.054688 40.203125 C 14.054688 39.890625 14.308594 39.640625 14.617188 39.640625 C 14.925781 39.640625 15.175781 39.890625 15.175781 40.203125 Z M 15.175781 40.203125 " fill-opacity="1" fill-rule="nonzero"/><g clip-path="url(#08f33c641d)"><path fill="#0873c1" d="M 7.730469 45.195312 C 7.730469 45.503906 7.476562 45.753906 7.167969 45.753906 C 6.859375 45.753906 6.605469 45.503906 6.605469 45.195312 C 6.605469 44.882812 6.859375 44.632812 7.167969 44.632812 C 7.476562 44.632812 7.730469 44.882812 7.730469 45.195312 Z M 7.730469 45.195312 " fill-opacity="1" fill-rule="nonzero"/></g><path fill="#0873c1" d="M 8.828125 52.59375 C 8.828125 52.902344 8.574219 53.152344 8.265625 53.152344 C 7.957031 53.152344 7.707031 52.902344 7.707031 52.59375 C 7.707031 52.28125 7.957031 52.03125 8.265625 52.03125 C 8.574219 52.03125 8.828125 52.28125 8.828125 52.59375 Z M 8.828125 52.59375 " fill-opacity="1" fill-rule="nonzero"/><path fill="#0873c1" d="M 9.648438 59.417969 C 9.648438 59.726562 9.398438 59.976562 9.089844 59.976562 C 8.777344 59.976562 8.527344 59.726562 8.527344 59.417969 C 8.527344 59.105469 8.777344 58.855469 9.089844 58.855469 C 9.398438 58.855469 9.648438 59.105469 9.648438 59.417969 Z M 9.648438 59.417969 " fill-opacity="1" fill-rule="nonzero"/><g clip-path="url(#97ca09cb69)"><path fill="#0873c1" d="M 14.640625 66.867188 C 14.640625 67.175781 14.390625 67.425781 14.082031 67.425781 C 13.769531 67.425781 13.519531 67.175781 13.519531 66.867188 C 13.519531 66.554688 13.769531 66.304688 14.082031 66.304688 C 14.390625 66.304688 14.640625 66.554688 14.640625 66.867188 Z M 14.640625 66.867188 " fill-opacity="1" fill-rule="nonzero"/></g><path fill="#0873c1" d="M 22.039062 65.765625 C 22.039062 66.074219 21.789062 66.328125 21.480469 66.328125 C 21.167969 66.328125 20.917969 66.074219 20.917969 65.765625 C 20.917969 65.457031 21.167969 65.207031 21.476562 65.207031 C 21.476562 65.207031 21.476562 65.207031 21.480469 65.207031 C 21.789062 65.207031 22.039062 65.457031 22.039062 65.765625 Z M 22.039062 65.765625 " fill-opacity="1" fill-rule="nonzero"/><path fill="#0873c1" d="M 28.863281 64.945312 C 28.863281 65.253906 28.613281 65.503906 28.304688 65.503906 C 27.992188 65.503906 27.742188 65.253906 27.742188 64.945312 C 27.742188 64.636719 27.992188 64.382812 28.304688 64.382812 C 28.613281 64.382812 28.863281 64.632812 28.863281 64.945312 Z M 28.863281 64.945312 " fill-opacity="1" fill-rule="nonzero"/><path fill="#0873c1" d="M 21.460938 42.007812 C 15.945312 42.007812 11.457031 46.496094 11.457031 52.011719 C 11.457031 57.523438 15.945312 62.011719 21.460938 62.011719 C 26.976562 62.011719 31.460938 57.523438 31.460938 52.011719 C 31.460938 46.496094 26.976562 42.007812 21.460938 42.007812 Z M 27.054688 53.554688 C 27.054688 56.640625 24.542969 59.152344 21.457031 59.152344 C 18.375 59.152344 15.863281 56.640625 15.863281 53.554688 L 15.863281 50.886719 C 15.863281 50.253906 16.378906 49.738281 17.015625 49.738281 L 17.195312 49.738281 L 17.195312 49.128906 C 17.195312 47.992188 17.640625 46.921875 18.445312 46.117188 C 19.253906 45.3125 20.324219 44.867188 21.457031 44.867188 C 22.597656 44.867188 23.667969 45.3125 24.472656 46.117188 C 25.277344 46.917969 25.71875 47.988281 25.71875 49.128906 L 25.71875 49.738281 L 25.902344 49.738281 C 26.539062 49.738281 27.054688 50.253906 27.054688 50.886719 Z M 27.054688 53.554688 " fill-opacity="1" fill-rule="nonzero"/><path fill="#0873c1" d="M 21.84375 54.535156 L 22.175781 55.875 C 21.84375 56.019531 21.074219 56.019531 20.742188 55.875 L 21.078125 54.535156 C 21.105469 54.417969 21.050781 54.296875 20.945312 54.242188 C 20.589844 54.054688 20.367188 53.683594 20.367188 53.28125 C 20.367188 52.675781 20.855469 52.1875 21.457031 52.1875 C 22.0625 52.1875 22.550781 52.675781 22.550781 53.28125 C 22.550781 53.683594 22.332031 54.054688 21.976562 54.242188 C 21.867188 54.300781 21.816406 54.417969 21.84375 54.535156 Z M 21.84375 54.535156 " fill-opacity="1" fill-rule="nonzero"/><path fill="#0873c1" d="M 23.644531 49.128906 L 23.644531 49.738281 L 19.277344 49.738281 L 19.277344 49.128906 C 19.277344 47.925781 20.253906 46.945312 21.460938 46.945312 C 22.664062 46.945312 23.644531 47.925781 23.644531 49.128906 Z M 23.644531 49.128906 " fill-opacity="1" fill-rule="nonzero"/><g clip-path="url(#350c5375ea)"><path fill="#0873c1" d="M 29.027344 52.144531 C 29.027344 52.664062 28.976562 53.175781 28.875 53.683594 C 28.773438 54.191406 28.625 54.683594 28.425781 55.160156 C 28.230469 55.636719 27.988281 56.089844 27.699219 56.519531 C 27.414062 56.953125 27.085938 57.347656 26.71875 57.714844 C 26.355469 58.082031 25.957031 58.40625 25.527344 58.695312 C 25.097656 58.980469 24.644531 59.222656 24.164062 59.421875 C 23.6875 59.621094 23.195312 59.769531 22.6875 59.871094 C 22.179688 59.972656 21.667969 60.023438 21.152344 60.023438 C 20.632812 60.023438 20.121094 59.972656 19.613281 59.871094 C 19.109375 59.769531 18.617188 59.621094 18.136719 59.421875 C 17.660156 59.222656 17.207031 58.980469 16.777344 58.695312 C 16.347656 58.40625 15.949219 58.082031 15.582031 57.714844 C 15.21875 57.347656 14.890625 56.953125 14.601562 56.519531 C 14.316406 56.089844 14.074219 55.636719 13.875 55.160156 C 13.675781 54.683594 13.527344 54.191406 13.425781 53.683594 C 13.328125 53.175781 13.277344 52.664062 13.277344 52.144531 C 13.277344 51.628906 13.328125 51.117188 13.425781 50.609375 C 13.527344 50.101562 13.675781 49.609375 13.875 49.132812 C 14.074219 48.65625 14.316406 48.199219 14.601562 47.769531 C 14.890625 47.339844 15.21875 46.941406 15.582031 46.578125 C 15.949219 46.210938 16.347656 45.886719 16.777344 45.597656 C 17.207031 45.308594 17.660156 45.066406 18.136719 44.871094 C 18.617188 44.671875 19.109375 44.523438 19.613281 44.421875 C 20.121094 44.320312 20.632812 44.269531 21.152344 44.269531 C 21.667969 44.269531 22.179688 44.320312 22.6875 44.421875 C 23.195312 44.523438 23.6875 44.671875 24.164062 44.871094 C 24.644531 45.066406 25.097656 45.308594 25.527344 45.597656 C 25.957031 45.886719 26.355469 46.210938 26.71875 46.578125 C 27.085938 46.941406 27.414062 47.339844 27.699219 47.769531 C 27.988281 48.199219 28.230469 48.65625 28.425781 49.132812 C 28.625 49.609375 28.773438 50.101562 28.875 50.609375 C 28.976562 51.117188 29.027344 51.628906 29.027344 52.144531 Z M 29.027344 52.144531 " fill-opacity="1" fill-rule="nonzero"/></g><path fill="#0873c1" d="M 16.605469 46.722656 L 23.457031 46.722656 L 23.457031 57.570312 L 16.605469 57.570312 Z M 16.605469 46.722656 " fill-opacity="1" fill-rule="nonzero"/><path fill="#002e35" d="M 17.226562 47.46875 L 22.835938 47.46875 L 22.835938 56.824219 L 17.226562 56.824219 Z M 17.226562 47.46875 " fill-opacity="1" fill-rule="nonzero"/><path fill="#ffffff" d="M 17.890625 48.425781 L 21.988281 48.425781 L 21.988281 49.195312 L 17.890625 49.195312 Z M 17.890625 48.425781 " fill-opacity="1" fill-rule="nonzero"/><path fill="#ffffff" d="M 17.890625 50 L 21.988281 50 L 21.988281 50.769531 L 17.890625 50.769531 Z M 17.890625 50 " fill-opacity="1" fill-rule="nonzero"/><path fill="#ffffff" d="M 20.78125 55.171875 C 20.78125 55.378906 20.707031 55.558594 20.5625 55.703125 C 20.414062 55.851562 20.238281 55.921875 20.03125 55.921875 C 19.824219 55.921875 19.648438 55.851562 19.5 55.703125 C 19.355469 55.558594 19.28125 55.378906 19.28125 55.171875 C 19.28125 54.964844 19.355469 54.789062 19.5 54.644531 C 19.648438 54.496094 19.824219 54.421875 20.03125 54.421875 C 20.238281 54.421875 20.414062 54.496094 20.5625 54.644531 C 20.707031 54.789062 20.78125 54.964844 20.78125 55.171875 Z M 20.78125 55.171875 " fill-opacity="1" fill-rule="nonzero"/><path fill="#0873c1" d="M 26.007812 51.328125 L 26.007812 53.730469 C 25.921875 55.882812 23.140625 56.597656 23.140625 56.597656 C 23.140625 56.597656 20.359375 55.882812 20.273438 53.730469 L 20.273438 51.328125 L 23.140625 50.210938 Z M 26.007812 51.328125 " fill-opacity="1" fill-rule="nonzero"/><path fill="#ffffff" d="M 26.007812 51.328125 L 26.007812 53.730469 C 25.921875 55.882812 23.140625 56.597656 23.140625 56.597656 L 23.140625 50.210938 Z M 26.007812 51.328125 " fill-opacity="1" fill-rule="nonzero"/><path fill="#ffffff" d="M 25.253906 51.875 L 25.253906 53.644531 C 25.191406 55.230469 23.140625 55.757812 23.140625 55.757812 C 23.140625 55.757812 21.089844 55.230469 21.027344 53.644531 L 21.027344 51.875 L 23.140625 51.050781 Z M 25.253906 51.875 " fill-opacity="1" fill-rule="nonzero"/><path fill="#0873c1" d="M 25.253906 51.875 L 25.253906 53.644531 C 25.191406 55.230469 23.140625 55.757812 23.140625 55.757812 L 23.140625 51.050781 Z M 25.253906 51.875 " fill-opacity="1" fill-rule="nonzero"/><g fill="#000000" fill-opacity="1"><g transform="translate(36.936762, 55.249376)"><g><path d="M 2.101562 -5.761719 C 2.136719 -5.867188 2.1875 -5.964844 2.246094 -6.050781 C 2.304688 -6.132812 2.390625 -6.195312 2.476562 -6.253906 C 2.558594 -6.316406 2.632812 -6.398438 2.742188 -6.4375 C 2.835938 -6.472656 2.945312 -6.484375 3.054688 -6.496094 C 3.175781 -6.519531 3.296875 -6.53125 3.40625 -6.507812 C 3.527344 -6.484375 3.632812 -6.449219 3.742188 -6.398438 C 3.851562 -6.351562 3.960938 -6.304688 4.070312 -6.242188 C 4.167969 -6.183594 4.273438 -6.109375 4.371094 -6.050781 C 4.480469 -5.988281 4.578125 -5.917969 4.671875 -5.867188 C 4.792969 -5.796875 4.878906 -5.773438 4.949219 -5.761719 C 5.058594 -5.746094 5.144531 -5.773438 5.242188 -5.855469 C 5.300781 -5.917969 5.347656 -6.011719 5.433594 -6.109375 C 5.496094 -6.183594 5.566406 -6.304688 5.628906 -6.4375 C 5.675781 -6.582031 5.722656 -6.738281 5.640625 -6.8125 C 5.46875 -6.945312 5.398438 -6.992188 5.3125 -7.050781 C 5.242188 -7.101562 5.15625 -7.160156 4.976562 -7.269531 C 4.867188 -7.34375 4.746094 -7.378906 4.648438 -7.425781 C 4.539062 -7.476562 4.433594 -7.523438 4.324219 -7.558594 C 4.214844 -7.59375 4.105469 -7.644531 3.984375 -7.667969 C 3.875 -7.691406 3.753906 -7.726562 3.632812 -7.742188 C 3.527344 -7.753906 3.40625 -7.726562 3.285156 -7.726562 C 3.164062 -7.726562 3.054688 -7.714844 2.957031 -7.703125 C 2.835938 -7.691406 2.730469 -7.691406 2.621094 -7.667969 C 2.511719 -7.644531 2.414062 -7.609375 2.304688 -7.570312 C 2.210938 -7.535156 2.113281 -7.488281 2.015625 -7.4375 C 1.90625 -7.390625 1.8125 -7.34375 1.726562 -7.28125 C 1.628906 -7.222656 1.546875 -7.148438 1.472656 -7.078125 C 1.390625 -6.992188 1.292969 -6.929688 1.230469 -6.847656 C 1.160156 -6.761719 1.121094 -6.652344 1.0625 -6.558594 C 1.015625 -6.460938 0.953125 -6.375 0.90625 -6.265625 C 0.871094 -6.171875 0.84375 -6.0625 0.820312 -5.953125 C 0.796875 -5.84375 0.773438 -5.734375 0.761719 -5.628906 C 0.75 -5.519531 0.75 -5.410156 0.75 -5.289062 C 0.75 -5.179688 0.75 -5.058594 0.773438 -4.949219 C 0.785156 -4.84375 0.820312 -4.722656 0.855469 -4.625 C 0.894531 -4.515625 0.964844 -4.417969 1.015625 -4.324219 C 1.074219 -4.226562 1.148438 -4.128906 1.21875 -4.046875 C 1.292969 -3.960938 1.390625 -3.898438 1.484375 -3.828125 C 1.570312 -3.753906 1.667969 -3.695312 1.761719 -3.648438 C 1.859375 -3.597656 1.96875 -3.550781 2.078125 -3.515625 C 2.171875 -3.476562 2.28125 -3.441406 2.378906 -3.40625 C 2.488281 -3.367188 2.585938 -3.332031 2.691406 -3.296875 C 2.789062 -3.261719 2.898438 -3.222656 2.996094 -3.1875 C 3.101562 -3.152344 3.199219 -3.128906 3.308594 -3.078125 C 3.40625 -3.042969 3.5 -2.996094 3.597656 -2.957031 C 3.707031 -2.921875 3.792969 -2.851562 3.898438 -2.8125 C 3.996094 -2.777344 4.105469 -2.753906 4.203125 -2.703125 C 4.300781 -2.644531 4.382812 -2.585938 4.457031 -2.511719 C 4.527344 -2.425781 4.589844 -2.34375 4.613281 -2.234375 C 4.625 -2.136719 4.636719 -2.027344 4.613281 -1.90625 C 4.589844 -1.8125 4.539062 -1.703125 4.46875 -1.59375 C 4.40625 -1.507812 4.3125 -1.449219 4.214844 -1.375 C 4.128906 -1.304688 4.019531 -1.253906 3.925781 -1.207031 C 3.816406 -1.160156 3.71875 -1.109375 3.609375 -1.085938 C 3.488281 -1.0625 3.382812 -1.074219 3.273438 -1.085938 C 3.152344 -1.097656 3.042969 -1.121094 2.921875 -1.160156 C 2.8125 -1.195312 2.703125 -1.242188 2.597656 -1.304688 C 2.488281 -1.351562 2.378906 -1.402344 2.28125 -1.460938 C 2.171875 -1.523438 2.089844 -1.605469 1.992188 -1.679688 C 1.894531 -1.761719 1.789062 -1.824219 1.726562 -1.90625 C 1.628906 -2.015625 1.570312 -2.089844 1.484375 -2.113281 C 1.390625 -2.136719 1.316406 -2.078125 1.207031 -1.992188 C 1.136719 -1.945312 1.0625 -1.871094 0.976562 -1.789062 C 0.882812 -1.691406 0.785156 -1.605469 0.722656 -1.535156 C 0.640625 -1.425781 0.566406 -1.316406 0.605469 -1.207031 C 0.640625 -1.121094 0.710938 -1.027344 0.832031 -0.929688 C 0.882812 -0.871094 0.953125 -0.785156 1.074219 -0.6875 C 1.148438 -0.617188 1.230469 -0.542969 1.328125 -0.472656 C 1.414062 -0.410156 1.523438 -0.363281 1.617188 -0.300781 C 1.714844 -0.242188 1.8125 -0.191406 1.921875 -0.144531 C 2.027344 -0.0976562 2.136719 -0.0859375 2.246094 -0.0585938 C 2.355469 -0.0234375 2.453125 0.046875 2.570312 0.0585938 C 2.667969 0.0859375 2.789062 0.0742188 2.910156 0.0859375 C 3.019531 0.0976562 3.128906 0.132812 3.25 0.132812 C 3.355469 0.132812 3.464844 0.121094 3.5625 0.121094 C 3.683594 0.109375 3.78125 0.0859375 3.886719 0.0742188 C 3.996094 0.0585938 4.09375 0.0234375 4.203125 0 C 4.3125 -0.0234375 4.40625 -0.046875 4.503906 -0.0859375 C 4.613281 -0.121094 4.710938 -0.15625 4.804688 -0.207031 C 4.902344 -0.253906 5 -0.300781 5.082031 -0.363281 C 5.179688 -0.421875 5.253906 -0.507812 5.324219 -0.578125 C 5.410156 -0.640625 5.507812 -0.699219 5.566406 -0.785156 C 5.640625 -0.871094 5.6875 -0.964844 5.734375 -1.0625 C 5.785156 -1.160156 5.84375 -1.242188 5.878906 -1.351562 C 5.917969 -1.449219 5.941406 -1.558594 5.964844 -1.667969 C 5.976562 -1.761719 5.976562 -1.871094 5.976562 -1.980469 C 5.976562 -2.089844 5.976562 -2.199219 5.964844 -2.304688 C 5.953125 -2.402344 5.929688 -2.511719 5.90625 -2.609375 C 5.878906 -2.71875 5.832031 -2.8125 5.796875 -2.910156 C 5.761719 -3.007812 5.734375 -3.101562 5.675781 -3.199219 C 5.628906 -3.285156 5.554688 -3.367188 5.496094 -3.453125 C 5.421875 -3.527344 5.335938 -3.597656 5.265625 -3.671875 C 5.179688 -3.730469 5.121094 -3.816406 5.023438 -3.875 C 4.9375 -3.9375 4.855469 -3.984375 4.757812 -4.035156 C 4.660156 -4.082031 4.566406 -4.117188 4.457031 -4.152344 C 4.359375 -4.179688 4.261719 -4.203125 4.167969 -4.238281 C 4.082031 -4.261719 3.984375 -4.3125 3.886719 -4.335938 C 3.804688 -4.371094 3.707031 -4.394531 3.609375 -4.433594 C 3.515625 -4.46875 3.417969 -4.480469 3.320312 -4.515625 C 3.222656 -4.550781 3.117188 -4.578125 3.007812 -4.625 C 2.910156 -4.660156 2.8125 -4.722656 2.71875 -4.769531 C 2.609375 -4.804688 2.511719 -4.855469 2.414062 -4.914062 C 2.320312 -4.988281 2.246094 -5.058594 2.1875 -5.144531 C 2.113281 -5.230469 2.054688 -5.335938 2.039062 -5.445312 C 2.039062 -5.554688 2.078125 -5.664062 2.101562 -5.761719 Z M 2.101562 -5.761719 "/></g></g></g><g fill="#000000" fill-opacity="1"><g transform="translate(43.529146, 55.249376)"><g><path d="M 2.945312 -5.507812 C 2.898438 -5.601562 2.863281 -5.710938 2.8125 -5.796875 C 2.742188 -5.917969 2.65625 -5.988281 2.609375 -6.050781 C 2.535156 -6.121094 2.464844 -6.207031 2.402344 -6.292969 C 2.332031 -6.375 2.292969 -6.472656 2.246094 -6.570312 C 2.1875 -6.652344 2.125 -6.738281 2.089844 -6.835938 C 2.039062 -6.957031 1.992188 -7.050781 1.957031 -7.136719 C 1.894531 -7.246094 1.859375 -7.34375 1.8125 -7.402344 C 1.726562 -7.511719 1.65625 -7.570312 1.558594 -7.59375 C 1.472656 -7.632812 1.363281 -7.621094 1.242188 -7.621094 C 1.148438 -7.621094 1.050781 -7.65625 0.929688 -7.65625 C 0.808594 -7.65625 0.710938 -7.632812 0.617188 -7.632812 C 0.484375 -7.632812 0.363281 -7.621094 0.300781 -7.582031 C 0.230469 -7.523438 0.207031 -7.425781 0.242188 -7.269531 C 0.265625 -7.210938 0.351562 -7.101562 0.433594 -6.96875 C 0.484375 -6.871094 0.554688 -6.761719 0.628906 -6.664062 C 0.6875 -6.558594 0.761719 -6.449219 0.820312 -6.363281 C 0.90625 -6.230469 1.003906 -6.132812 1.039062 -6.074219 C 1.097656 -6 1.136719 -5.90625 1.195312 -5.808594 C 1.253906 -5.734375 1.316406 -5.652344 1.375 -5.554688 C 1.425781 -5.46875 1.472656 -5.375 1.535156 -5.289062 C 1.582031 -5.203125 1.640625 -5.121094 1.703125 -5.035156 C 1.761719 -4.9375 1.8125 -4.855469 1.871094 -4.769531 C 1.933594 -4.683594 1.992188 -4.601562 2.054688 -4.515625 C 2.113281 -4.433594 2.148438 -4.335938 2.210938 -4.25 C 2.257812 -4.191406 2.34375 -4.117188 2.390625 -4.019531 C 2.425781 -3.949219 2.464844 -3.851562 2.5 -3.765625 C 2.546875 -3.660156 2.585938 -3.550781 2.585938 -3.488281 C 2.585938 -3.332031 2.558594 -3.234375 2.558594 -3.152344 C 2.558594 -3.03125 2.585938 -2.945312 2.570312 -2.824219 C 2.570312 -2.730469 2.570312 -2.632812 2.570312 -2.476562 C 2.558594 -2.367188 2.535156 -2.257812 2.535156 -2.136719 C 2.523438 -2.015625 2.535156 -1.894531 2.523438 -1.789062 C 2.523438 -1.667969 2.511719 -1.546875 2.5 -1.425781 C 2.5 -1.316406 2.476562 -1.195312 2.464844 -1.074219 C 2.464844 -0.964844 2.476562 -0.84375 2.476562 -0.722656 C 2.476562 -0.605469 2.488281 -0.496094 2.5 -0.386719 C 2.5 -0.253906 2.523438 -0.167969 2.585938 -0.109375 C 2.644531 -0.046875 2.742188 -0.0117188 2.851562 0 C 2.933594 0.0117188 3.042969 0.0117188 3.152344 0.0117188 C 3.261719 0.0117188 3.382812 -0.0117188 3.5 -0.0351562 C 3.621094 -0.046875 3.742188 -0.0585938 3.828125 -0.121094 C 3.9375 -0.179688 4.007812 -0.277344 4.007812 -0.410156 C 3.996094 -0.519531 3.984375 -0.617188 3.972656 -0.710938 C 3.972656 -0.796875 3.972656 -0.894531 3.972656 -1.015625 C 3.972656 -1.097656 3.949219 -1.195312 3.949219 -1.316406 C 3.949219 -1.414062 3.972656 -1.507812 3.972656 -1.617188 C 3.984375 -1.714844 3.972656 -1.8125 3.972656 -1.933594 C 3.984375 -2.039062 3.996094 -2.160156 3.996094 -2.292969 C 3.984375 -2.414062 3.972656 -2.535156 3.960938 -2.65625 C 3.949219 -2.789062 3.9375 -2.910156 3.925781 -3.019531 C 3.914062 -3.164062 3.914062 -3.296875 3.914062 -3.382812 C 3.914062 -3.488281 3.9375 -3.597656 3.984375 -3.71875 C 4.035156 -3.828125 4.070312 -3.9375 4.128906 -4.058594 C 4.191406 -4.152344 4.25 -4.25 4.324219 -4.359375 C 4.394531 -4.457031 4.46875 -4.539062 4.550781 -4.636719 C 4.613281 -4.734375 4.710938 -4.816406 4.78125 -4.914062 C 4.832031 -4.964844 4.890625 -5.070312 4.988281 -5.191406 C 5.046875 -5.277344 5.109375 -5.375 5.179688 -5.46875 C 5.253906 -5.554688 5.289062 -5.664062 5.363281 -5.761719 C 5.421875 -5.855469 5.507812 -5.941406 5.578125 -6.039062 C 5.640625 -6.132812 5.710938 -6.21875 5.773438 -6.316406 C 5.84375 -6.410156 5.90625 -6.507812 5.964844 -6.59375 C 6.039062 -6.703125 6.074219 -6.8125 6.121094 -6.894531 C 6.21875 -7.027344 6.277344 -7.125 6.316406 -7.183594 C 6.425781 -7.34375 6.472656 -7.4375 6.4375 -7.5 C 6.398438 -7.570312 6.292969 -7.621094 6.109375 -7.632812 C 6.011719 -7.644531 5.894531 -7.621094 5.746094 -7.621094 C 5.613281 -7.621094 5.507812 -7.667969 5.421875 -7.667969 C 5.277344 -7.667969 5.191406 -7.632812 5.109375 -7.558594 C 5.046875 -7.511719 4.988281 -7.425781 4.890625 -7.304688 C 4.84375 -7.234375 4.746094 -7.160156 4.671875 -7.050781 C 4.613281 -6.980469 4.566406 -6.882812 4.503906 -6.785156 C 4.457031 -6.703125 4.417969 -6.605469 4.359375 -6.519531 C 4.3125 -6.4375 4.261719 -6.339844 4.214844 -6.242188 C 4.167969 -6.160156 4.09375 -6.085938 4.046875 -5.988281 C 3.996094 -5.90625 3.9375 -5.820312 3.886719 -5.722656 C 3.828125 -5.640625 3.804688 -5.53125 3.742188 -5.445312 C 3.683594 -5.363281 3.621094 -5.289062 3.5625 -5.203125 C 3.5 -5.121094 3.417969 -5.097656 3.332031 -5.109375 C 3.234375 -5.109375 3.152344 -5.132812 3.101562 -5.214844 C 3.042969 -5.3125 2.996094 -5.410156 2.945312 -5.507812 Z M 2.945312 -5.507812 "/></g></g></g><g fill="#000000" fill-opacity="1"><g transform="translate(50.206047, 55.249376)"><g><path d="M 2.101562 -5.761719 C 2.136719 -5.867188 2.1875 -5.964844 2.246094 -6.050781 C 2.304688 -6.132812 2.390625 -6.195312 2.476562 -6.253906 C 2.558594 -6.316406 2.632812 -6.398438 2.742188 -6.4375 C 2.835938 -6.472656 2.945312 -6.484375 3.054688 -6.496094 C 3.175781 -6.519531 3.296875 -6.53125 3.40625 -6.507812 C 3.527344 -6.484375 3.632812 -6.449219 3.742188 -6.398438 C 3.851562 -6.351562 3.960938 -6.304688 4.070312 -6.242188 C 4.167969 -6.183594 4.273438 -6.109375 4.371094 -6.050781 C 4.480469 -5.988281 4.578125 -5.917969 4.671875 -5.867188 C 4.792969 -5.796875 4.878906 -5.773438 4.949219 -5.761719 C 5.058594 -5.746094 5.144531 -5.773438 5.242188 -5.855469 C 5.300781 -5.917969 5.347656 -6.011719 5.433594 -6.109375 C 5.496094 -6.183594 5.566406 -6.304688 5.628906 -6.4375 C 5.675781 -6.582031 5.722656 -6.738281 5.640625 -6.8125 C 5.46875 -6.945312 5.398438 -6.992188 5.3125 -7.050781 C 5.242188 -7.101562 5.15625 -7.160156 4.976562 -7.269531 C 4.867188 -7.34375 4.746094 -7.378906 4.648438 -7.425781 C 4.539062 -7.476562 4.433594 -7.523438 4.324219 -7.558594 C 4.214844 -7.59375 4.105469 -7.644531 3.984375 -7.667969 C 3.875 -7.691406 3.753906 -7.726562 3.632812 -7.742188 C 3.527344 -7.753906 3.40625 -7.726562 3.285156 -7.726562 C 3.164062 -7.726562 3.054688 -7.714844 2.957031 -7.703125 C 2.835938 -7.691406 2.730469 -7.691406 2.621094 -7.667969 C 2.511719 -7.644531 2.414062 -7.609375 2.304688 -7.570312 C 2.210938 -7.535156 2.113281 -7.488281 2.015625 -7.4375 C 1.90625 -7.390625 1.8125 -7.34375 1.726562 -7.28125 C 1.628906 -7.222656 1.546875 -7.148438 1.472656 -7.078125 C 1.390625 -6.992188 1.292969 -6.929688 1.230469 -6.847656 C 1.160156 -6.761719 1.121094 -6.652344 1.0625 -6.558594 C 1.015625 -6.460938 0.953125 -6.375 0.90625 -6.265625 C 0.871094 -6.171875 0.84375 -6.0625 0.820312 -5.953125 C 0.796875 -5.84375 0.773438 -5.734375 0.761719 -5.628906 C 0.75 -5.519531 0.75 -5.410156 0.75 -5.289062 C 0.75 -5.179688 0.75 -5.058594 0.773438 -4.949219 C 0.785156 -4.84375 0.820312 -4.722656 0.855469 -4.625 C 0.894531 -4.515625 0.964844 -4.417969 1.015625 -4.324219 C 1.074219 -4.226562 1.148438 -4.128906 1.21875 -4.046875 C 1.292969 -3.960938 1.390625 -3.898438 1.484375 -3.828125 C 1.570312 -3.753906 1.667969 -3.695312 1.761719 -3.648438 C 1.859375 -3.597656 1.96875 -3.550781 2.078125 -3.515625 C 2.171875 -3.476562 2.28125 -3.441406 2.378906 -3.40625 C 2.488281 -3.367188 2.585938 -3.332031 2.691406 -3.296875 C 2.789062 -3.261719 2.898438 -3.222656 2.996094 -3.1875 C 3.101562 -3.152344 3.199219 -3.128906 3.308594 -3.078125 C 3.40625 -3.042969 3.5 -2.996094 3.597656 -2.957031 C 3.707031 -2.921875 3.792969 -2.851562 3.898438 -2.8125 C 3.996094 -2.777344 4.105469 -2.753906 4.203125 -2.703125 C 4.300781 -2.644531 4.382812 -2.585938 4.457031 -2.511719 C 4.527344 -2.425781 4.589844 -2.34375 4.613281 -2.234375 C 4.625 -2.136719 4.636719 -2.027344 4.613281 -1.90625 C 4.589844 -1.8125 4.539062 -1.703125 4.46875 -1.59375 C 4.40625 -1.507812 4.3125 -1.449219 4.214844 -1.375 C 4.128906 -1.304688 4.019531 -1.253906 3.925781 -1.207031 C 3.816406 -1.160156 3.71875 -1.109375 3.609375 -1.085938 C 3.488281 -1.0625 3.382812 -1.074219 3.273438 -1.085938 C 3.152344 -1.097656 3.042969 -1.121094 2.921875 -1.160156 C 2.8125 -1.195312 2.703125 -1.242188 2.597656 -1.304688 C 2.488281 -1.351562 2.378906 -1.402344 2.28125 -1.460938 C 2.171875 -1.523438 2.089844 -1.605469 1.992188 -1.679688 C 1.894531 -1.761719 1.789062 -1.824219 1.726562 -1.90625 C 1.628906 -2.015625 1.570312 -2.089844 1.484375 -2.113281 C 1.390625 -2.136719 1.316406 -2.078125 1.207031 -1.992188 C 1.136719 -1.945312 1.0625 -1.871094 0.976562 -1.789062 C 0.882812 -1.691406 0.785156 -1.605469 0.722656 -1.535156 C 0.640625 -1.425781 0.566406 -1.316406 0.605469 -1.207031 C 0.640625 -1.121094 0.710938 -1.027344 0.832031 -0.929688 C 0.882812 -0.871094 0.953125 -0.785156 1.074219 -0.6875 C 1.148438 -0.617188 1.230469 -0.542969 1.328125 -0.472656 C 1.414062 -0.410156 1.523438 -0.363281 1.617188 -0.300781 C 1.714844 -0.242188 1.8125 -0.191406 1.921875 -0.144531 C 2.027344 -0.0976562 2.136719 -0.0859375 2.246094 -0.0585938 C 2.355469 -0.0234375 2.453125 0.046875 2.570312 0.0585938 C 2.667969 0.0859375 2.789062 0.0742188 2.910156 0.0859375 C 3.019531 0.0976562 3.128906 0.132812 3.25 0.132812 C 3.355469 0.132812 3.464844 0.121094 3.5625 0.121094 C 3.683594 0.109375 3.78125 0.0859375 3.886719 0.0742188 C 3.996094 0.0585938 4.09375 0.0234375 4.203125 0 C 4.3125 -0.0234375 4.40625 -0.046875 4.503906 -0.0859375 C 4.613281 -0.121094 4.710938 -0.15625 4.804688 -0.207031 C 4.902344 -0.253906 5 -0.300781 5.082031 -0.363281 C 5.179688 -0.421875 5.253906 -0.507812 5.324219 -0.578125 C 5.410156 -0.640625 5.507812 -0.699219 5.566406 -0.785156 C 5.640625 -0.871094 5.6875 -0.964844 5.734375 -1.0625 C 5.785156 -1.160156 5.84375 -1.242188 5.878906 -1.351562 C 5.917969 -1.449219 5.941406 -1.558594 5.964844 -1.667969 C 5.976562 -1.761719 5.976562 -1.871094 5.976562 -1.980469 C 5.976562 -2.089844 5.976562 -2.199219 5.964844 -2.304688 C 5.953125 -2.402344 5.929688 -2.511719 5.90625 -2.609375 C 5.878906 -2.71875 5.832031 -2.8125 5.796875 -2.910156 C 5.761719 -3.007812 5.734375 -3.101562 5.675781 -3.199219 C 5.628906 -3.285156 5.554688 -3.367188 5.496094 -3.453125 C 5.421875 -3.527344 5.335938 -3.597656 5.265625 -3.671875 C 5.179688 -3.730469 5.121094 -3.816406 5.023438 -3.875 C 4.9375 -3.9375 4.855469 -3.984375 4.757812 -4.035156 C 4.660156 -4.082031 4.566406 -4.117188 4.457031 -4.152344 C 4.359375 -4.179688 4.261719 -4.203125 4.167969 -4.238281 C 4.082031 -4.261719 3.984375 -4.3125 3.886719 -4.335938 C 3.804688 -4.371094 3.707031 -4.394531 3.609375 -4.433594 C 3.515625 -4.46875 3.417969 -4.480469 3.320312 -4.515625 C 3.222656 -4.550781 3.117188 -4.578125 3.007812 -4.625 C 2.910156 -4.660156 2.8125 -4.722656 2.71875 -4.769531 C 2.609375 -4.804688 2.511719 -4.855469 2.414062 -4.914062 C 2.320312 -4.988281 2.246094 -5.058594 2.1875 -5.144531 C 2.113281 -5.230469 2.054688 -5.335938 2.039062 -5.445312 C 2.039062 -5.554688 2.078125 -5.664062 2.101562 -5.761719 Z M 2.101562 -5.761719 "/></g></g></g><g fill="#000000" fill-opacity="1"><g transform="translate(56.798431, 55.249376)"><g><path d="M 3.695312 -6.292969 C 3.816406 -6.292969 3.9375 -6.277344 4.035156 -6.277344 C 4.152344 -6.277344 4.261719 -6.277344 4.371094 -6.277344 C 4.492188 -6.277344 4.601562 -6.277344 4.710938 -6.277344 C 4.855469 -6.277344 4.964844 -6.316406 5.046875 -6.363281 C 5.144531 -6.425781 5.214844 -6.507812 5.242188 -6.640625 C 5.265625 -6.738281 5.277344 -6.859375 5.277344 -6.992188 C 5.277344 -7.113281 5.253906 -7.222656 5.230469 -7.304688 C 5.203125 -7.414062 5.144531 -7.511719 5.046875 -7.546875 C 4.976562 -7.582031 4.867188 -7.59375 4.734375 -7.59375 C 4.625 -7.59375 4.515625 -7.59375 4.40625 -7.609375 C 4.300781 -7.609375 4.179688 -7.59375 4.070312 -7.59375 C 3.960938 -7.59375 3.851562 -7.609375 3.742188 -7.609375 C 3.632812 -7.609375 3.527344 -7.59375 3.417969 -7.59375 C 3.308594 -7.59375 3.199219 -7.621094 3.078125 -7.621094 C 2.96875 -7.621094 2.863281 -7.59375 2.753906 -7.59375 C 2.644531 -7.59375 2.535156 -7.609375 2.425781 -7.609375 C 2.320312 -7.609375 2.210938 -7.609375 2.089844 -7.609375 C 1.980469 -7.621094 1.871094 -7.632812 1.761719 -7.644531 C 1.65625 -7.644531 1.546875 -7.632812 1.4375 -7.632812 C 1.328125 -7.632812 1.21875 -7.644531 1.097656 -7.644531 C 0.988281 -7.644531 0.882812 -7.644531 0.773438 -7.644531 C 0.664062 -7.65625 0.53125 -7.644531 0.457031 -7.582031 C 0.386719 -7.511719 0.324219 -7.425781 0.300781 -7.34375 C 0.265625 -7.234375 0.289062 -7.125 0.289062 -7.039062 C 0.300781 -6.929688 0.253906 -6.8125 0.265625 -6.703125 C 0.277344 -6.59375 0.324219 -6.496094 0.433594 -6.410156 C 0.507812 -6.351562 0.605469 -6.304688 0.722656 -6.304688 C 0.820312 -6.292969 0.941406 -6.304688 1.039062 -6.292969 C 1.160156 -6.292969 1.28125 -6.292969 1.390625 -6.277344 C 1.507812 -6.265625 1.628906 -6.265625 1.726562 -6.253906 C 1.945312 -6.242188 1.96875 -6.351562 2.078125 -6.21875 C 2.1875 -6.085938 2.078125 -6.074219 2.078125 -5.855469 C 2.078125 -5.746094 2.066406 -5.628906 2.078125 -5.496094 C 2.078125 -5.375 2.101562 -5.253906 2.101562 -5.132812 C 2.101562 -5.035156 2.066406 -4.925781 2.066406 -4.804688 C 2.066406 -4.699219 2.078125 -4.589844 2.078125 -4.480469 C 2.078125 -4.371094 2.066406 -4.261719 2.066406 -4.152344 C 2.066406 -4.046875 2.054688 -3.9375 2.054688 -3.828125 C 2.054688 -3.71875 2.066406 -3.597656 2.066406 -3.488281 C 2.066406 -3.382812 2.066406 -3.273438 2.066406 -3.164062 C 2.066406 -3.054688 2.078125 -2.945312 2.078125 -2.835938 C 2.078125 -2.730469 2.089844 -2.609375 2.089844 -2.5 C 2.089844 -2.390625 2.066406 -2.28125 2.078125 -2.171875 C 2.078125 -2.066406 2.089844 -1.957031 2.089844 -1.847656 C 2.089844 -1.738281 2.101562 -1.628906 2.101562 -1.523438 C 2.101562 -1.414062 2.078125 -1.304688 2.078125 -1.195312 C 2.078125 -1.085938 2.078125 -0.976562 2.089844 -0.871094 C 2.089844 -0.761719 2.101562 -0.652344 2.101562 -0.542969 C 2.101562 -0.375 2.113281 -0.265625 2.148438 -0.179688 C 2.199219 -0.0351562 2.28125 0.0234375 2.414062 0.0351562 C 2.523438 0.0351562 2.644531 0.0234375 2.789062 0.0234375 C 2.945312 0.0117188 3.054688 -0.0117188 3.140625 -0.0351562 C 3.296875 -0.0585938 3.34375 -0.121094 3.382812 -0.230469 C 3.417969 -0.3125 3.429688 -0.421875 3.429688 -0.566406 C 3.429688 -0.675781 3.417969 -0.796875 3.417969 -0.917969 C 3.417969 -1.027344 3.429688 -1.148438 3.417969 -1.269531 C 3.417969 -1.375 3.40625 -1.496094 3.40625 -1.617188 C 3.40625 -1.726562 3.417969 -1.847656 3.417969 -1.957031 C 3.417969 -2.078125 3.394531 -2.199219 3.394531 -2.304688 C 3.394531 -2.425781 3.441406 -2.535156 3.441406 -2.65625 C 3.441406 -2.765625 3.441406 -2.886719 3.429688 -2.996094 C 3.429688 -3.117188 3.417969 -3.234375 3.417969 -3.34375 C 3.417969 -3.453125 3.429688 -3.5625 3.429688 -3.671875 C 3.429688 -3.78125 3.394531 -3.886719 3.394531 -3.996094 C 3.394531 -4.105469 3.382812 -4.214844 3.382812 -4.324219 C 3.382812 -4.433594 3.367188 -4.539062 3.367188 -4.648438 C 3.367188 -4.757812 3.367188 -4.867188 3.367188 -4.976562 C 3.367188 -5.082031 3.355469 -5.191406 3.355469 -5.300781 C 3.355469 -5.410156 3.382812 -5.519531 3.382812 -5.640625 C 3.382812 -5.734375 3.367188 -5.84375 3.367188 -5.964844 C 3.355469 -6.074219 3.382812 -6.160156 3.367188 -6.277344 C 3.488281 -6.277344 3.585938 -6.292969 3.695312 -6.292969 Z M 3.695312 -6.292969 "/></g></g></g><g fill="#000000" fill-opacity="1"><g transform="translate(62.352455, 55.249376)"><g><path d="M 2.644531 -6.253906 C 2.765625 -6.253906 2.875 -6.265625 2.996094 -6.265625 C 3.101562 -6.265625 3.210938 -6.242188 3.332031 -6.242188 C 3.441406 -6.242188 3.550781 -6.253906 3.671875 -6.253906 C 3.78125 -6.253906 3.898438 -6.242188 4.007812 -6.242188 C 4.117188 -6.242188 4.238281 -6.242188 4.347656 -6.242188 C 4.457031 -6.242188 4.578125 -6.265625 4.683594 -6.265625 C 4.792969 -6.265625 4.914062 -6.265625 5.023438 -6.265625 C 5.167969 -6.265625 5.289062 -6.253906 5.386719 -6.277344 C 5.519531 -6.304688 5.589844 -6.351562 5.652344 -6.472656 C 5.699219 -6.558594 5.734375 -6.664062 5.746094 -6.824219 C 5.746094 -6.945312 5.761719 -7.0625 5.761719 -7.160156 C 5.761719 -7.292969 5.746094 -7.402344 5.675781 -7.488281 C 5.601562 -7.535156 5.519531 -7.609375 5.363281 -7.632812 C 5.265625 -7.644531 5.144531 -7.621094 5.011719 -7.621094 C 4.902344 -7.621094 4.792969 -7.632812 4.699219 -7.621094 C 4.589844 -7.621094 4.480469 -7.65625 4.382812 -7.644531 C 4.273438 -7.644531 4.167969 -7.621094 4.058594 -7.621094 C 3.960938 -7.609375 3.851562 -7.59375 3.742188 -7.582031 C 3.648438 -7.582031 3.539062 -7.59375 3.429688 -7.59375 C 3.320312 -7.582031 3.199219 -7.558594 3.089844 -7.558594 C 2.96875 -7.558594 2.851562 -7.558594 2.742188 -7.570312 C 2.621094 -7.570312 2.511719 -7.59375 2.390625 -7.609375 C 2.28125 -7.621094 2.160156 -7.621094 2.054688 -7.632812 C 1.933594 -7.632812 1.8125 -7.632812 1.703125 -7.632812 C 1.582031 -7.632812 1.472656 -7.667969 1.351562 -7.667969 C 1.230469 -7.667969 1.136719 -7.632812 1.015625 -7.621094 C 1.015625 -7.523438 1.003906 -7.425781 1.003906 -7.316406 C 1.003906 -7.210938 0.976562 -7.101562 0.964844 -6.992188 C 0.964844 -6.882812 0.988281 -6.773438 0.988281 -6.675781 C 0.988281 -6.570312 0.976562 -6.460938 0.976562 -6.351562 C 0.964844 -6.242188 0.964844 -6.132812 0.964844 -6.027344 C 0.964844 -5.917969 0.976562 -5.808594 0.976562 -5.710938 C 0.976562 -5.601562 0.976562 -5.496094 0.976562 -5.386719 C 0.976562 -5.277344 0.941406 -5.167969 0.941406 -5.058594 C 0.941406 -4.964844 0.964844 -4.855469 0.964844 -4.746094 C 0.964844 -4.636719 0.953125 -4.527344 0.953125 -4.417969 C 0.953125 -4.324219 0.976562 -4.214844 0.964844 -4.105469 C 0.964844 -3.996094 0.929688 -3.886719 0.917969 -3.78125 C 0.917969 -3.683594 0.953125 -3.574219 0.941406 -3.464844 C 0.941406 -3.355469 0.929688 -3.25 0.917969 -3.152344 C 0.917969 -3.042969 0.929688 -2.933594 0.929688 -2.824219 C 0.929688 -2.71875 0.929688 -2.609375 0.929688 -2.511719 C 0.929688 -2.402344 0.929688 -2.292969 0.929688 -2.1875 C 0.929688 -2.089844 0.917969 -1.980469 0.917969 -1.871094 C 0.90625 -1.761719 0.953125 -1.65625 0.953125 -1.546875 C 0.953125 -1.449219 0.917969 -1.339844 0.917969 -1.230469 C 0.917969 -1.121094 0.941406 -1.015625 0.941406 -0.917969 C 0.941406 -0.808594 0.917969 -0.699219 0.917969 -0.589844 C 0.917969 -0.507812 1.003906 -0.375 1.109375 -0.265625 C 1.21875 -0.15625 1.351562 -0.0859375 1.449219 -0.0742188 C 1.546875 -0.0742188 1.65625 -0.0585938 1.761719 -0.0585938 C 1.859375 -0.046875 1.96875 -0.0585938 2.078125 -0.046875 C 2.171875 -0.046875 2.28125 -0.0117188 2.390625 0 C 2.488281 0 2.597656 -0.0351562 2.703125 -0.0351562 C 2.8125 -0.0351562 2.910156 -0.0234375 3.019531 -0.0234375 C 3.128906 -0.0234375 3.234375 0.0117188 3.332031 0.0234375 C 3.441406 0.0234375 3.550781 -0.0117188 3.648438 -0.0117188 C 3.753906 0 3.863281 0.0117188 3.972656 0.0117188 C 4.070312 0.0117188 4.179688 0.0234375 4.285156 0.0234375 C 4.382812 0.0234375 4.492188 0.0117188 4.601562 0.0117188 C 4.710938 0.0117188 4.804688 -0.0117188 4.914062 -0.0117188 C 5.023438 -0.0117188 5.121094 0.0117188 5.230469 0.0117188 C 5.347656 0.0117188 5.445312 -0.0234375 5.507812 -0.0859375 C 5.589844 -0.144531 5.613281 -0.230469 5.640625 -0.339844 C 5.652344 -0.421875 5.640625 -0.519531 5.601562 -0.617188 C 5.578125 -0.710938 5.554688 -0.808594 5.507812 -0.894531 C 5.445312 -0.988281 5.375 -1.074219 5.3125 -1.148438 C 5.242188 -1.21875 5.15625 -1.269531 5.023438 -1.28125 C 4.914062 -1.292969 4.792969 -1.28125 4.671875 -1.28125 C 4.550781 -1.28125 4.433594 -1.304688 4.3125 -1.304688 C 4.191406 -1.304688 4.070312 -1.316406 3.949219 -1.316406 C 3.828125 -1.316406 3.71875 -1.292969 3.597656 -1.292969 C 3.476562 -1.292969 3.355469 -1.269531 3.234375 -1.28125 C 3.117188 -1.28125 3.007812 -1.28125 2.886719 -1.28125 C 2.765625 -1.28125 2.644531 -1.269531 2.535156 -1.269531 C 2.332031 -1.269531 2.34375 -1.195312 2.210938 -1.304688 C 2.089844 -1.390625 2.160156 -1.402344 2.148438 -1.582031 C 2.148438 -1.667969 2.160156 -1.773438 2.160156 -1.882812 C 2.160156 -1.96875 2.148438 -2.078125 2.148438 -2.171875 C 2.148438 -2.269531 2.148438 -2.378906 2.160156 -2.464844 C 2.160156 -2.570312 2.148438 -2.679688 2.160156 -2.789062 C 2.171875 -2.886719 2.1875 -2.984375 2.222656 -3.101562 C 2.320312 -3.101562 2.425781 -3.089844 2.535156 -3.089844 C 2.644531 -3.078125 2.753906 -3.089844 2.851562 -3.089844 C 2.957031 -3.089844 3.066406 -3.078125 3.175781 -3.078125 C 3.285156 -3.078125 3.382812 -3.078125 3.488281 -3.078125 C 3.597656 -3.078125 3.695312 -3.089844 3.804688 -3.101562 C 3.914062 -3.101562 4.007812 -3.089844 4.117188 -3.089844 C 4.238281 -3.089844 4.335938 -3.128906 4.417969 -3.128906 C 4.539062 -3.140625 4.648438 -3.128906 4.722656 -3.164062 C 4.832031 -3.199219 4.902344 -3.273438 4.9375 -3.382812 C 4.964844 -3.453125 4.925781 -3.5625 4.914062 -3.683594 C 4.914062 -3.765625 4.925781 -3.875 4.902344 -3.984375 C 4.890625 -4.082031 4.867188 -4.191406 4.84375 -4.300781 C 4.734375 -4.3125 4.601562 -4.285156 4.492188 -4.285156 C 4.371094 -4.300781 4.261719 -4.324219 4.140625 -4.324219 C 4.019531 -4.324219 3.914062 -4.347656 3.792969 -4.347656 C 3.671875 -4.359375 3.5625 -4.324219 3.441406 -4.335938 C 3.320312 -4.347656 3.210938 -4.394531 3.089844 -4.40625 C 3.007812 -4.40625 2.898438 -4.382812 2.800781 -4.382812 C 2.703125 -4.382812 2.609375 -4.394531 2.511719 -4.394531 C 2.34375 -4.394531 2.304688 -4.273438 2.210938 -4.382812 C 2.101562 -4.503906 2.222656 -4.539062 2.210938 -4.722656 C 2.210938 -4.816406 2.1875 -4.9375 2.1875 -5.046875 C 2.1875 -5.15625 2.210938 -5.277344 2.210938 -5.375 C 2.210938 -5.46875 2.222656 -5.554688 2.234375 -5.664062 C 2.246094 -5.746094 2.234375 -5.84375 2.246094 -5.953125 C 2.257812 -6.050781 2.292969 -6.132812 2.304688 -6.242188 C 2.425781 -6.242188 2.535156 -6.253906 2.644531 -6.253906 Z M 2.644531 -6.253906 "/></g></g></g><g fill="#000000" fill-opacity="1"><g transform="translate(68.655064, 55.249376)"><g><path d="M 2.199219 -1.269531 C 2.210938 -1.363281 2.171875 -1.472656 2.1875 -1.59375 C 2.1875 -1.703125 2.210938 -1.8125 2.222656 -1.921875 C 2.222656 -2.027344 2.246094 -2.136719 2.246094 -2.246094 C 2.246094 -2.367188 2.222656 -2.476562 2.222656 -2.585938 C 2.234375 -2.691406 2.269531 -2.800781 2.28125 -2.910156 C 2.28125 -3.03125 2.257812 -3.140625 2.257812 -3.234375 C 2.28125 -3.429688 2.320312 -3.5625 2.332031 -3.5625 C 2.367188 -3.5 2.453125 -3.355469 2.535156 -3.199219 C 2.609375 -3.054688 2.667969 -2.898438 2.703125 -2.824219 C 2.753906 -2.730469 2.800781 -2.632812 2.851562 -2.535156 C 2.898438 -2.4375 2.921875 -2.332031 2.957031 -2.234375 C 3.007812 -2.125 3.042969 -2.027344 3.089844 -1.933594 C 3.128906 -1.824219 3.199219 -1.738281 3.25 -1.640625 C 3.285156 -1.546875 3.308594 -1.4375 3.355469 -1.328125 C 3.40625 -1.230469 3.464844 -1.148438 3.515625 -1.039062 C 3.5625 -0.941406 3.609375 -0.855469 3.660156 -0.761719 C 3.707031 -0.652344 3.765625 -0.554688 3.816406 -0.457031 C 3.851562 -0.386719 3.925781 -0.300781 3.996094 -0.230469 C 4.070312 -0.15625 4.128906 -0.0585938 4.214844 -0.0117188 C 4.3125 0.046875 4.417969 0.0976562 4.503906 0.0976562 C 4.589844 0.0976562 4.683594 0.0351562 4.769531 -0.0351562 C 4.84375 -0.0976562 4.902344 -0.179688 4.976562 -0.253906 C 5.046875 -0.324219 5.121094 -0.398438 5.179688 -0.472656 C 5.242188 -0.554688 5.265625 -0.652344 5.289062 -0.761719 C 5.324219 -0.871094 5.375 -0.964844 5.410156 -1.0625 C 5.457031 -1.160156 5.480469 -1.253906 5.53125 -1.351562 C 5.566406 -1.460938 5.566406 -1.570312 5.601562 -1.667969 C 5.640625 -1.761719 5.6875 -1.859375 5.734375 -1.957031 C 5.773438 -2.054688 5.796875 -2.148438 5.832031 -2.257812 C 5.867188 -2.355469 5.941406 -2.4375 5.976562 -2.535156 C 6.011719 -2.632812 6.0625 -2.730469 6.097656 -2.824219 C 6.132812 -2.921875 6.171875 -3.019531 6.207031 -3.117188 C 6.242188 -3.210938 6.265625 -3.320312 6.304688 -3.417969 C 6.339844 -3.515625 6.375 -3.609375 6.410156 -3.707031 C 6.558594 -3.9375 6.542969 -3.730469 6.542969 -3.609375 C 6.542969 -3.5 6.53125 -3.394531 6.53125 -3.285156 C 6.542969 -3.1875 6.570312 -3.078125 6.582031 -2.96875 C 6.582031 -2.875 6.605469 -2.765625 6.605469 -2.65625 C 6.617188 -2.558594 6.59375 -2.453125 6.59375 -2.34375 C 6.605469 -2.234375 6.652344 -2.136719 6.652344 -2.027344 C 6.652344 -1.933594 6.640625 -1.8125 6.652344 -1.691406 C 6.652344 -1.582031 6.628906 -1.460938 6.628906 -1.339844 C 6.640625 -1.230469 6.664062 -1.109375 6.675781 -1.003906 C 6.675781 -0.882812 6.640625 -0.761719 6.652344 -0.652344 C 6.652344 -0.53125 6.664062 -0.410156 6.675781 -0.3125 C 6.691406 -0.167969 6.75 -0.0976562 6.8125 -0.046875 C 6.882812 0.0117188 6.96875 0.046875 7.089844 0.0351562 C 7.183594 0.0351562 7.28125 0 7.402344 -0.0117188 C 7.582031 -0.0234375 7.703125 -0.0234375 7.789062 -0.0585938 C 7.875 -0.121094 7.921875 -0.21875 7.921875 -0.410156 C 7.921875 -0.519531 7.898438 -0.628906 7.898438 -0.738281 C 7.886719 -0.84375 7.886719 -0.953125 7.886719 -1.0625 C 7.886719 -1.171875 7.898438 -1.28125 7.898438 -1.390625 C 7.886719 -1.496094 7.847656 -1.605469 7.847656 -1.714844 C 7.847656 -1.824219 7.835938 -1.933594 7.835938 -2.039062 C 7.824219 -2.148438 7.835938 -2.269531 7.835938 -2.378906 C 7.824219 -2.488281 7.824219 -2.597656 7.824219 -2.703125 C 7.8125 -2.8125 7.835938 -2.921875 7.835938 -3.03125 C 7.824219 -3.140625 7.8125 -3.261719 7.800781 -3.367188 C 7.800781 -3.476562 7.824219 -3.585938 7.824219 -3.695312 C 7.8125 -3.804688 7.8125 -3.914062 7.800781 -4.019531 C 7.800781 -4.128906 7.800781 -4.238281 7.800781 -4.359375 C 7.800781 -4.46875 7.789062 -4.578125 7.777344 -4.683594 C 7.777344 -4.792969 7.777344 -4.902344 7.777344 -5.011719 C 7.777344 -5.121094 7.765625 -5.230469 7.753906 -5.335938 C 7.753906 -5.445312 7.765625 -5.554688 7.753906 -5.664062 C 7.753906 -5.773438 7.742188 -5.878906 7.742188 -5.988281 C 7.742188 -6.097656 7.753906 -6.207031 7.753906 -6.316406 C 7.753906 -6.425781 7.726562 -6.53125 7.714844 -6.640625 C 7.714844 -6.75 7.714844 -6.859375 7.703125 -6.96875 C 7.703125 -7.078125 7.714844 -7.183594 7.714844 -7.292969 C 7.714844 -7.425781 7.667969 -7.511719 7.59375 -7.570312 C 7.535156 -7.621094 7.449219 -7.667969 7.316406 -7.667969 C 7.222656 -7.667969 7.125 -7.667969 7.003906 -7.65625 C 6.882812 -7.667969 6.785156 -7.644531 6.703125 -7.609375 C 6.605469 -7.582031 6.507812 -7.535156 6.449219 -7.449219 C 6.398438 -7.367188 6.351562 -7.269531 6.316406 -7.160156 C 6.292969 -7.0625 6.277344 -6.957031 6.242188 -6.871094 C 6.207031 -6.761719 6.171875 -6.652344 6.132812 -6.558594 C 6.085938 -6.449219 6.039062 -6.351562 6 -6.253906 C 5.964844 -6.144531 5.917969 -6.050781 5.878906 -5.941406 C 5.832031 -5.84375 5.832031 -5.722656 5.785156 -5.613281 C 5.746094 -5.519531 5.675781 -5.421875 5.640625 -5.324219 C 5.601562 -5.214844 5.589844 -5.109375 5.542969 -5 C 5.507812 -4.902344 5.46875 -4.792969 5.433594 -4.699219 C 5.386719 -4.589844 5.335938 -4.492188 5.300781 -4.382812 C 5.253906 -4.285156 5.214844 -4.179688 5.179688 -4.082031 C 5.144531 -3.972656 5.097656 -3.875 5.058594 -3.765625 C 5.023438 -3.660156 5 -3.550781 4.964844 -3.453125 C 4.925781 -3.34375 4.867188 -3.25 4.832031 -3.152344 C 4.792969 -3.054688 4.769531 -2.945312 4.710938 -2.835938 C 4.660156 -2.753906 4.578125 -2.679688 4.503906 -2.570312 C 4.457031 -2.488281 4.40625 -2.378906 4.335938 -2.28125 C 4.300781 -2.378906 4.261719 -2.5 4.226562 -2.597656 C 4.191406 -2.703125 4.117188 -2.800781 4.082031 -2.898438 C 4.035156 -3.007812 4.007812 -3.117188 3.960938 -3.210938 C 3.925781 -3.320312 3.863281 -3.417969 3.828125 -3.527344 C 3.78125 -3.621094 3.78125 -3.742188 3.730469 -3.839844 C 3.695312 -3.949219 3.609375 -4.035156 3.574219 -4.140625 C 3.527344 -4.238281 3.515625 -4.359375 3.464844 -4.457031 C 3.429688 -4.566406 3.394531 -4.660156 3.355469 -4.769531 C 3.308594 -4.878906 3.261719 -4.976562 3.210938 -5.070312 C 3.175781 -5.179688 3.140625 -5.277344 3.101562 -5.386719 C 3.054688 -5.480469 3.019531 -5.589844 2.984375 -5.699219 C 2.945312 -5.796875 2.886719 -5.894531 2.835938 -6 C 2.800781 -6.097656 2.777344 -6.207031 2.742188 -6.316406 C 2.691406 -6.410156 2.65625 -6.519531 2.609375 -6.628906 C 2.570312 -6.714844 2.511719 -6.796875 2.476562 -6.894531 C 2.4375 -7.003906 2.402344 -7.089844 2.355469 -7.183594 C 2.304688 -7.28125 2.28125 -7.378906 2.210938 -7.449219 C 2.148438 -7.523438 2.054688 -7.546875 1.945312 -7.582031 C 1.859375 -7.59375 1.761719 -7.609375 1.640625 -7.582031 C 1.507812 -7.609375 1.402344 -7.621094 1.316406 -7.59375 C 1.207031 -7.570312 1.136719 -7.511719 1.097656 -7.378906 C 1.0625 -7.304688 1.050781 -7.195312 1.039062 -7.050781 C 1.039062 -6.957031 1.015625 -6.847656 1.015625 -6.726562 C 1.015625 -6.628906 1.039062 -6.507812 1.039062 -6.386719 C 1.039062 -6.277344 1.027344 -6.171875 1.027344 -6.0625 C 1.015625 -5.953125 1.039062 -5.84375 1.039062 -5.746094 C 1.039062 -5.640625 1.027344 -5.53125 1.027344 -5.421875 C 1.027344 -5.3125 1.027344 -5.203125 1.015625 -5.097656 C 1.015625 -5 1.015625 -4.890625 1.015625 -4.78125 C 1.003906 -4.671875 1.003906 -4.566406 1.003906 -4.457031 C 0.988281 -4.359375 0.988281 -4.25 0.988281 -4.140625 C 0.988281 -4.035156 0.953125 -3.925781 0.941406 -3.816406 C 0.941406 -3.71875 0.964844 -3.609375 0.964844 -3.5 C 0.953125 -3.394531 0.953125 -3.285156 0.953125 -3.175781 C 0.953125 -3.066406 0.90625 -2.96875 0.90625 -2.863281 C 0.90625 -2.753906 0.917969 -2.644531 0.90625 -2.535156 C 0.90625 -2.425781 0.90625 -2.320312 0.894531 -2.210938 C 0.894531 -2.101562 0.917969 -1.992188 0.90625 -1.894531 C 0.90625 -1.789062 0.90625 -1.679688 0.90625 -1.570312 C 0.90625 -1.460938 0.894531 -1.351562 0.894531 -1.242188 C 0.882812 -1.136719 0.871094 -1.027344 0.871094 -0.917969 C 0.855469 -0.855469 0.882812 -0.75 0.882812 -0.640625 C 0.882812 -0.542969 0.882812 -0.445312 0.882812 -0.351562 C 0.882812 -0.230469 0.882812 -0.121094 0.917969 -0.0742188 C 0.976562 0 1.085938 0.0234375 1.207031 0.0117188 C 1.328125 0.0117188 1.449219 -0.0117188 1.535156 -0.0117188 C 1.617188 -0.0117188 1.726562 0.0117188 1.824219 0.0117188 C 1.933594 0.0117188 2.015625 -0.0117188 2.066406 -0.0976562 C 2.101562 -0.167969 2.148438 -0.253906 2.160156 -0.363281 C 2.171875 -0.457031 2.148438 -0.554688 2.148438 -0.652344 C 2.148438 -0.761719 2.160156 -0.855469 2.171875 -0.941406 C 2.171875 -1.027344 2.199219 -1.148438 2.199219 -1.269531 Z M 2.199219 -1.269531 "/></g></g></g><g fill="#000000" fill-opacity="1"><g transform="translate(77.444911, 55.249376)"><g><path d="M 6.460938 -4.359375 C 6.460938 -4.457031 6.410156 -4.550781 6.410156 -4.648438 C 6.398438 -4.757812 6.386719 -4.855469 6.375 -4.949219 C 6.363281 -5.046875 6.375 -5.15625 6.351562 -5.253906 C 6.316406 -5.363281 6.253906 -5.457031 6.230469 -5.578125 C 6.195312 -5.6875 6.171875 -5.796875 6.132812 -5.90625 C 6.097656 -6.011719 6.074219 -6.132812 6.027344 -6.230469 C 5.988281 -6.339844 5.953125 -6.449219 5.894531 -6.558594 C 5.84375 -6.652344 5.785156 -6.761719 5.710938 -6.847656 C 5.652344 -6.945312 5.578125 -7.039062 5.496094 -7.125 C 5.410156 -7.195312 5.300781 -7.246094 5.203125 -7.316406 C 5.109375 -7.378906 5.011719 -7.4375 4.902344 -7.488281 C 4.804688 -7.535156 4.683594 -7.558594 4.578125 -7.59375 C 4.46875 -7.621094 4.359375 -7.65625 4.238281 -7.679688 C 4.128906 -7.703125 4.019531 -7.714844 3.898438 -7.714844 C 3.792969 -7.726562 3.671875 -7.726562 3.5625 -7.726562 C 3.441406 -7.726562 3.332031 -7.726562 3.210938 -7.703125 C 3.101562 -7.691406 2.996094 -7.667969 2.875 -7.644531 C 2.765625 -7.621094 2.644531 -7.621094 2.535156 -7.582031 C 2.425781 -7.535156 2.332031 -7.476562 2.234375 -7.414062 C 2.125 -7.367188 2.039062 -7.304688 1.945312 -7.234375 C 1.847656 -7.171875 1.726562 -7.136719 1.640625 -7.050781 C 1.558594 -6.980469 1.496094 -6.882812 1.414062 -6.785156 C 1.351562 -6.703125 1.28125 -6.605469 1.21875 -6.507812 C 1.160156 -6.410156 1.121094 -6.292969 1.085938 -6.183594 C 1.039062 -6.085938 1.003906 -5.976562 0.964844 -5.855469 C 0.941406 -5.746094 0.894531 -5.640625 0.871094 -5.53125 C 0.84375 -5.410156 0.796875 -5.300781 0.773438 -5.191406 C 0.75 -5.070312 0.761719 -4.949219 0.75 -4.84375 C 0.738281 -4.722656 0.722656 -4.613281 0.710938 -4.492188 C 0.699219 -4.382812 0.675781 -4.261719 0.675781 -4.152344 C 0.664062 -4.035156 0.664062 -3.925781 0.675781 -3.804688 C 0.675781 -3.683594 0.6875 -3.574219 0.699219 -3.453125 C 0.699219 -3.34375 0.699219 -3.222656 0.710938 -3.101562 C 0.722656 -2.996094 0.75 -2.886719 0.773438 -2.765625 C 0.796875 -2.65625 0.785156 -2.535156 0.820312 -2.414062 C 0.84375 -2.320312 0.90625 -2.222656 0.929688 -2.113281 C 0.964844 -2.003906 0.988281 -1.894531 1.027344 -1.800781 C 1.0625 -1.691406 1.109375 -1.59375 1.160156 -1.496094 C 1.207031 -1.402344 1.253906 -1.304688 1.304688 -1.207031 C 1.363281 -1.109375 1.4375 -1.027344 1.496094 -0.929688 C 1.570312 -0.832031 1.628906 -0.75 1.714844 -0.664062 C 1.800781 -0.578125 1.882812 -0.496094 1.96875 -0.421875 C 2.054688 -0.351562 2.160156 -0.289062 2.257812 -0.230469 C 2.355469 -0.167969 2.464844 -0.109375 2.558594 -0.0585938 C 2.667969 -0.0117188 2.789062 0.0117188 2.898438 0.0351562 C 3.007812 0.0742188 3.128906 0.0859375 3.234375 0.109375 C 3.355469 0.121094 3.464844 0.121094 3.585938 0.121094 C 3.695312 0.121094 3.816406 0.121094 3.925781 0.0976562 C 4.046875 0.0859375 4.152344 0.0585938 4.261719 0.0234375 C 4.371094 -0.0117188 4.480469 -0.046875 4.589844 -0.0976562 C 4.699219 -0.144531 4.792969 -0.207031 4.890625 -0.265625 C 4.988281 -0.339844 5.082031 -0.386719 5.179688 -0.472656 C 5.265625 -0.542969 5.363281 -0.605469 5.445312 -0.6875 C 5.519531 -0.773438 5.578125 -0.882812 5.640625 -0.976562 C 5.699219 -1.074219 5.761719 -1.160156 5.820312 -1.253906 C 5.867188 -1.339844 5.929688 -1.4375 5.976562 -1.535156 C 6.027344 -1.628906 6.0625 -1.726562 6.109375 -1.835938 C 6.144531 -1.933594 6.171875 -2.039062 6.207031 -2.136719 C 6.242188 -2.246094 6.292969 -2.34375 6.316406 -2.4375 C 6.339844 -2.546875 6.375 -2.65625 6.398438 -2.765625 C 6.410156 -2.863281 6.425781 -2.96875 6.4375 -3.078125 C 6.449219 -3.1875 6.460938 -3.296875 6.472656 -3.40625 C 6.472656 -3.515625 6.472656 -3.621094 6.472656 -3.730469 C 6.472656 -3.839844 6.472656 -3.949219 6.472656 -4.058594 C 6.460938 -4.152344 6.472656 -4.25 6.460938 -4.359375 Z M 1.933594 -4.082031 C 1.945312 -4.191406 1.933594 -4.285156 1.945312 -4.394531 C 1.957031 -4.492188 1.957031 -4.601562 1.96875 -4.699219 C 1.980469 -4.804688 2.003906 -4.902344 2.027344 -5 C 2.039062 -5.109375 2.078125 -5.203125 2.101562 -5.300781 C 2.125 -5.410156 2.136719 -5.53125 2.1875 -5.628906 C 2.246094 -5.722656 2.304688 -5.820312 2.367188 -5.90625 C 2.4375 -6 2.535156 -6.074219 2.621094 -6.144531 C 2.703125 -6.207031 2.800781 -6.277344 2.898438 -6.328125 C 2.996094 -6.375 3.101562 -6.4375 3.210938 -6.460938 C 3.320312 -6.496094 3.441406 -6.496094 3.550781 -6.496094 C 3.660156 -6.496094 3.765625 -6.496094 3.875 -6.460938 C 3.972656 -6.4375 4.070312 -6.375 4.167969 -6.316406 C 4.261719 -6.265625 4.359375 -6.230469 4.445312 -6.160156 C 4.527344 -6.085938 4.589844 -5.988281 4.660156 -5.90625 C 4.722656 -5.820312 4.78125 -5.734375 4.84375 -5.628906 C 4.890625 -5.542969 4.925781 -5.433594 4.964844 -5.324219 C 5 -5.214844 5.035156 -5.109375 5.058594 -5 C 5.082031 -4.890625 5.109375 -4.78125 5.132812 -4.671875 C 5.144531 -4.550781 5.15625 -4.445312 5.167969 -4.335938 C 5.179688 -4.214844 5.203125 -4.105469 5.214844 -3.996094 C 5.214844 -3.875 5.203125 -3.765625 5.203125 -3.660156 C 5.203125 -3.539062 5.203125 -3.429688 5.191406 -3.308594 C 5.179688 -3.199219 5.15625 -3.089844 5.132812 -2.96875 C 5.109375 -2.863281 5.082031 -2.753906 5.058594 -2.644531 C 5.023438 -2.535156 4.988281 -2.425781 4.9375 -2.320312 C 4.902344 -2.210938 4.855469 -2.113281 4.804688 -2.027344 C 4.757812 -1.933594 4.699219 -1.835938 4.636719 -1.761719 C 4.566406 -1.679688 4.492188 -1.59375 4.40625 -1.535156 C 4.324219 -1.460938 4.226562 -1.425781 4.128906 -1.375 C 4.035156 -1.328125 3.925781 -1.328125 3.816406 -1.316406 C 3.71875 -1.292969 3.609375 -1.269531 3.5 -1.28125 C 3.394531 -1.292969 3.285156 -1.304688 3.1875 -1.339844 C 3.078125 -1.363281 2.96875 -1.414062 2.886719 -1.460938 C 2.789062 -1.507812 2.703125 -1.582031 2.632812 -1.65625 C 2.546875 -1.726562 2.476562 -1.8125 2.414062 -1.90625 C 2.355469 -1.992188 2.320312 -2.101562 2.28125 -2.199219 C 2.234375 -2.292969 2.210938 -2.402344 2.171875 -2.511719 C 2.136719 -2.609375 2.101562 -2.71875 2.078125 -2.8125 C 2.054688 -2.921875 2.039062 -3.03125 2.015625 -3.140625 C 2.003906 -3.25 1.96875 -3.355469 1.957031 -3.453125 C 1.933594 -3.5625 1.921875 -3.671875 1.894531 -3.78125 C 1.90625 -3.875 1.921875 -3.984375 1.933594 -4.082031 Z M 1.933594 -4.082031 "/></g></g></g><g fill="#000000" fill-opacity="1"><g transform="translate(84.604769, 55.249376)"><g><path d="M 2.425781 -1.363281 C 2.535156 -1.351562 2.644531 -1.328125 2.753906 -1.328125 C 2.875 -1.328125 2.984375 -1.328125 3.089844 -1.328125 C 3.199219 -1.328125 3.308594 -1.339844 3.417969 -1.339844 C 3.527344 -1.339844 3.632812 -1.339844 3.742188 -1.339844 C 3.851562 -1.351562 3.972656 -1.375 4.09375 -1.375 C 4.226562 -1.363281 4.347656 -1.351562 4.457031 -1.351562 C 4.660156 -1.339844 4.660156 -1.414062 4.816406 -1.339844 C 4.949219 -1.28125 4.867188 -1.21875 4.964844 -1.074219 C 5.011719 -1.003906 5.082031 -0.929688 5.132812 -0.832031 C 5.179688 -0.75 5.214844 -0.664062 5.253906 -0.566406 C 5.300781 -0.484375 5.347656 -0.386719 5.363281 -0.300781 C 5.398438 -0.167969 5.457031 -0.109375 5.519531 -0.0585938 C 5.589844 -0.0117188 5.675781 -0.0117188 5.796875 -0.0117188 C 5.878906 -0.0117188 5.988281 0 6.097656 0 C 6.21875 0 6.316406 -0.0234375 6.398438 -0.0351562 C 6.53125 -0.0585938 6.617188 -0.0976562 6.652344 -0.167969 C 6.691406 -0.242188 6.675781 -0.339844 6.628906 -0.472656 C 6.59375 -0.554688 6.558594 -0.664062 6.507812 -0.773438 C 6.472656 -0.871094 6.460938 -0.988281 6.410156 -1.085938 C 6.375 -1.195312 6.304688 -1.28125 6.265625 -1.390625 C 6.21875 -1.496094 6.183594 -1.59375 6.132812 -1.703125 C 6.097656 -1.800781 6.085938 -1.921875 6.050781 -2.015625 C 6 -2.125 5.941406 -2.222656 5.90625 -2.320312 C 5.867188 -2.425781 5.808594 -2.523438 5.773438 -2.621094 C 5.734375 -2.71875 5.710938 -2.824219 5.675781 -2.921875 C 5.640625 -3.019531 5.578125 -3.117188 5.542969 -3.210938 C 5.507812 -3.320312 5.457031 -3.417969 5.421875 -3.515625 C 5.386719 -3.609375 5.363281 -3.71875 5.324219 -3.816406 C 5.289062 -3.925781 5.253906 -4.019531 5.214844 -4.117188 C 5.167969 -4.214844 5.132812 -4.3125 5.082031 -4.417969 C 5.046875 -4.515625 5.035156 -4.625 5 -4.722656 C 4.964844 -4.832031 4.890625 -4.914062 4.855469 -5.011719 C 4.816406 -5.109375 4.792969 -5.214844 4.757812 -5.3125 C 4.710938 -5.421875 4.699219 -5.519531 4.660156 -5.628906 C 4.625 -5.722656 4.566406 -5.820312 4.515625 -5.917969 C 4.480469 -6.011719 4.457031 -6.121094 4.417969 -6.21875 C 4.371094 -6.316406 4.335938 -6.410156 4.300781 -6.519531 C 4.261719 -6.617188 4.203125 -6.714844 4.167969 -6.8125 C 4.128906 -6.90625 4.082031 -7.003906 4.046875 -7.101562 C 3.984375 -7.257812 3.972656 -7.378906 3.925781 -7.449219 C 3.828125 -7.59375 3.730469 -7.621094 3.609375 -7.632812 C 3.515625 -7.644531 3.40625 -7.644531 3.25 -7.632812 C 3.140625 -7.632812 3.078125 -7.621094 2.984375 -7.546875 C 2.933594 -7.5 2.851562 -7.449219 2.777344 -7.34375 C 2.742188 -7.269531 2.730469 -7.171875 2.679688 -7.0625 C 2.644531 -6.980469 2.597656 -6.894531 2.558594 -6.796875 C 2.523438 -6.703125 2.5 -6.59375 2.464844 -6.484375 C 2.425781 -6.386719 2.390625 -6.292969 2.355469 -6.183594 C 2.320312 -6.085938 2.28125 -5.976562 2.246094 -5.878906 C 2.210938 -5.773438 2.160156 -5.675781 2.125 -5.566406 C 2.089844 -5.46875 2.089844 -5.347656 2.054688 -5.253906 C 2.015625 -5.144531 1.957031 -5.058594 1.921875 -4.949219 C 1.882812 -4.855469 1.871094 -4.746094 1.835938 -4.636719 C 1.800781 -4.527344 1.738281 -4.445312 1.703125 -4.335938 C 1.679688 -4.238281 1.640625 -4.128906 1.605469 -4.019531 C 1.570312 -3.925781 1.546875 -3.816406 1.507812 -3.71875 C 1.472656 -3.609375 1.4375 -3.515625 1.402344 -3.40625 C 1.363281 -3.308594 1.339844 -3.199219 1.304688 -3.089844 C 1.269531 -2.996094 1.195312 -2.898438 1.160156 -2.800781 C 1.121094 -2.703125 1.136719 -2.585938 1.097656 -2.476562 C 1.0625 -2.378906 1.027344 -2.28125 0.988281 -2.171875 C 0.953125 -2.078125 0.882812 -1.980469 0.84375 -1.882812 C 0.808594 -1.773438 0.808594 -1.667969 0.773438 -1.570312 C 0.738281 -1.460938 0.6875 -1.363281 0.652344 -1.269531 C 0.628906 -1.207031 0.578125 -1.074219 0.519531 -0.929688 C 0.484375 -0.820312 0.445312 -0.699219 0.398438 -0.589844 C 0.351562 -0.433594 0.324219 -0.300781 0.324219 -0.242188 C 0.300781 -0.0351562 0.375 0.0117188 0.53125 0.0117188 C 0.640625 0.0234375 0.773438 0 0.929688 0.0117188 C 1.039062 0.0234375 1.183594 0.0234375 1.316406 0 C 1.449219 -0.0234375 1.546875 -0.0742188 1.617188 -0.191406 C 1.667969 -0.289062 1.726562 -0.375 1.761719 -0.472656 C 1.800781 -0.566406 1.835938 -0.664062 1.871094 -0.761719 C 1.90625 -0.855469 1.933594 -0.953125 1.980469 -1.050781 C 2.015625 -1.148438 2.039062 -1.253906 2.089844 -1.351562 C 2.199219 -1.351562 2.320312 -1.363281 2.425781 -1.363281 Z M 2.585938 -2.96875 C 2.621094 -3.078125 2.65625 -3.175781 2.691406 -3.273438 C 2.730469 -3.382812 2.765625 -3.476562 2.800781 -3.585938 C 2.835938 -3.683594 2.875 -3.78125 2.921875 -3.875 C 2.957031 -3.984375 2.984375 -4.082031 3.03125 -4.179688 C 3.066406 -4.285156 3.140625 -4.371094 3.175781 -4.46875 C 3.210938 -4.566406 3.210938 -4.683594 3.25 -4.792969 C 3.285156 -4.890625 3.34375 -5 3.382812 -5.109375 C 3.441406 -5 3.476562 -4.878906 3.527344 -4.792969 C 3.585938 -4.683594 3.660156 -4.601562 3.707031 -4.503906 C 3.765625 -4.40625 3.804688 -4.300781 3.839844 -4.203125 C 3.886719 -4.105469 3.925781 -3.996094 3.960938 -3.898438 C 4.007812 -3.792969 4.058594 -3.695312 4.09375 -3.585938 C 4.140625 -3.488281 4.203125 -3.394531 4.238281 -3.296875 C 4.285156 -3.1875 4.300781 -3.078125 4.335938 -2.96875 C 4.382812 -2.875 4.433594 -2.777344 4.480469 -2.667969 C 4.359375 -2.667969 4.261719 -2.65625 4.152344 -2.65625 C 4.035156 -2.65625 3.925781 -2.65625 3.816406 -2.65625 C 3.695312 -2.65625 3.585938 -2.679688 3.476562 -2.679688 C 3.367188 -2.679688 3.261719 -2.667969 3.140625 -2.667969 C 3.03125 -2.667969 2.921875 -2.667969 2.800781 -2.667969 C 2.691406 -2.667969 2.570312 -2.65625 2.453125 -2.65625 C 2.488281 -2.765625 2.546875 -2.875 2.585938 -2.96875 Z M 2.585938 -2.96875 "/></g></g></g><g fill="#000000" fill-opacity="1"><g transform="translate(91.607668, 55.249376)"><g><path d="M 0.941406 -6.386719 C 0.941406 -6.292969 0.953125 -6.183594 0.941406 -6.0625 C 0.941406 -5.964844 0.929688 -5.855469 0.929688 -5.746094 C 0.929688 -5.640625 0.929688 -5.53125 0.929688 -5.421875 C 0.929688 -5.3125 0.929688 -5.203125 0.929688 -5.097656 C 0.929688 -4.988281 0.90625 -4.878906 0.917969 -4.769531 C 0.917969 -4.660156 0.941406 -4.550781 0.941406 -4.445312 C 0.941406 -4.335938 0.929688 -4.226562 0.929688 -4.117188 C 0.929688 -4.007812 0.917969 -3.898438 0.917969 -3.792969 C 0.917969 -3.683594 0.941406 -3.574219 0.941406 -3.464844 C 0.941406 -3.355469 0.929688 -3.25 0.929688 -3.140625 C 0.929688 -3.03125 0.929688 -2.921875 0.929688 -2.8125 C 0.929688 -2.703125 0.941406 -2.597656 0.953125 -2.5 C 0.953125 -2.378906 0.953125 -2.269531 0.953125 -2.171875 C 0.953125 -2.054688 0.929688 -1.945312 0.929688 -1.847656 C 0.929688 -1.726562 0.964844 -1.617188 0.964844 -1.523438 C 0.964844 -1.402344 0.953125 -1.28125 0.953125 -1.195312 C 0.953125 -1.074219 0.976562 -0.953125 0.988281 -0.855469 C 1.003906 -0.722656 0.964844 -0.605469 0.988281 -0.519531 C 1.027344 -0.386719 1.097656 -0.300781 1.171875 -0.230469 C 1.242188 -0.15625 1.339844 -0.0976562 1.472656 -0.0585938 C 1.570312 -0.0351562 1.679688 -0.0351562 1.8125 -0.0234375 C 1.921875 -0.0234375 2.027344 -0.0117188 2.160156 -0.0117188 C 2.257812 0 2.355469 0 2.453125 0 C 2.558594 0 2.65625 0.0234375 2.753906 0.0234375 C 2.851562 0.0234375 2.945312 -0.0117188 3.054688 -0.0117188 C 3.152344 -0.0234375 3.25 0.0117188 3.34375 0 C 3.464844 -0.0117188 3.574219 -0.0351562 3.683594 -0.0585938 C 3.792969 -0.0742188 3.898438 -0.0742188 4.007812 -0.0976562 C 4.117188 -0.132812 4.226562 -0.167969 4.335938 -0.207031 C 4.433594 -0.242188 4.539062 -0.300781 4.636719 -0.351562 C 4.734375 -0.398438 4.832031 -0.457031 4.914062 -0.519531 C 5.011719 -0.578125 5.097656 -0.652344 5.179688 -0.722656 C 5.265625 -0.796875 5.363281 -0.855469 5.445312 -0.941406 C 5.519531 -1.027344 5.554688 -1.136719 5.613281 -1.230469 C 5.675781 -1.316406 5.734375 -1.414062 5.796875 -1.507812 C 5.84375 -1.605469 5.929688 -1.691406 5.964844 -1.800781 C 6.011719 -1.894531 6.027344 -2.003906 6.0625 -2.101562 C 6.097656 -2.210938 6.132812 -2.304688 6.171875 -2.402344 C 6.195312 -2.5 6.242188 -2.609375 6.265625 -2.703125 C 6.292969 -2.800781 6.304688 -2.910156 6.316406 -3.019531 C 6.339844 -3.117188 6.339844 -3.222656 6.351562 -3.332031 C 6.363281 -3.429688 6.398438 -3.539062 6.398438 -3.648438 C 6.410156 -3.742188 6.410156 -3.851562 6.410156 -3.960938 C 6.410156 -4.070312 6.375 -4.167969 6.375 -4.273438 C 6.363281 -4.382812 6.351562 -4.480469 6.339844 -4.589844 C 6.328125 -4.699219 6.339844 -4.792969 6.328125 -4.902344 C 6.304688 -5.011719 6.277344 -5.109375 6.253906 -5.214844 C 6.230469 -5.3125 6.207031 -5.421875 6.183594 -5.519531 C 6.144531 -5.613281 6.109375 -5.710938 6.074219 -5.820312 C 6.039062 -5.917969 6.011719 -6.027344 5.976562 -6.109375 C 5.929688 -6.207031 5.90625 -6.316406 5.855469 -6.398438 C 5.796875 -6.496094 5.722656 -6.582031 5.664062 -6.652344 C 5.601562 -6.738281 5.519531 -6.8125 5.445312 -6.882812 C 5.375 -6.96875 5.300781 -7.027344 5.214844 -7.101562 C 5.144531 -7.160156 5.046875 -7.210938 4.964844 -7.257812 C 4.867188 -7.304688 4.792969 -7.390625 4.699219 -7.4375 C 4.601562 -7.476562 4.492188 -7.476562 4.382812 -7.5 C 4.285156 -7.523438 4.191406 -7.570312 4.082031 -7.582031 C 3.972656 -7.59375 3.863281 -7.609375 3.742188 -7.609375 C 3.632812 -7.621094 3.527344 -7.644531 3.40625 -7.644531 C 3.296875 -7.65625 3.1875 -7.644531 3.066406 -7.644531 C 2.957031 -7.644531 2.851562 -7.644531 2.730469 -7.644531 C 2.621094 -7.644531 2.511719 -7.65625 2.390625 -7.65625 C 2.28125 -7.65625 2.171875 -7.632812 2.054688 -7.632812 C 1.945312 -7.621094 1.835938 -7.632812 1.714844 -7.621094 C 1.582031 -7.621094 1.460938 -7.609375 1.363281 -7.582031 C 1.230469 -7.546875 1.136719 -7.488281 1.074219 -7.402344 C 1.015625 -7.316406 0.964844 -7.210938 0.941406 -7.0625 C 0.929688 -6.96875 0.953125 -6.847656 0.953125 -6.714844 C 0.953125 -6.628906 0.941406 -6.519531 0.941406 -6.386719 Z M 2.28125 -1.75 C 2.269531 -1.859375 2.269531 -1.980469 2.257812 -2.089844 C 2.257812 -2.199219 2.246094 -2.304688 2.246094 -2.414062 C 2.246094 -2.535156 2.246094 -2.644531 2.246094 -2.753906 C 2.246094 -2.863281 2.246094 -2.984375 2.246094 -3.089844 C 2.246094 -3.199219 2.28125 -3.308594 2.28125 -3.417969 C 2.28125 -3.539062 2.234375 -3.648438 2.234375 -3.753906 C 2.234375 -3.863281 2.246094 -3.984375 2.246094 -4.09375 C 2.246094 -4.203125 2.28125 -4.3125 2.28125 -4.417969 C 2.28125 -4.527344 2.246094 -4.648438 2.246094 -4.757812 C 2.246094 -4.867188 2.257812 -4.976562 2.257812 -5.082031 C 2.257812 -5.191406 2.269531 -5.300781 2.257812 -5.421875 C 2.257812 -5.53125 2.257812 -5.640625 2.246094 -5.746094 C 2.246094 -5.855469 2.222656 -5.964844 2.222656 -6.074219 C 2.210938 -6.253906 2.269531 -6.328125 2.332031 -6.375 C 2.402344 -6.425781 2.511719 -6.425781 2.65625 -6.410156 C 2.753906 -6.410156 2.863281 -6.425781 2.996094 -6.4375 C 3.117188 -6.4375 3.222656 -6.4375 3.332031 -6.4375 C 3.453125 -6.425781 3.5625 -6.386719 3.671875 -6.363281 C 3.78125 -6.339844 3.886719 -6.316406 3.996094 -6.265625 C 4.09375 -6.230469 4.203125 -6.183594 4.285156 -6.109375 C 4.382812 -6.050781 4.480469 -5.988281 4.550781 -5.90625 C 4.625 -5.820312 4.683594 -5.710938 4.734375 -5.613281 C 4.792969 -5.519531 4.816406 -5.410156 4.855469 -5.300781 C 4.890625 -5.191406 4.9375 -5.097656 4.964844 -4.976562 C 4.988281 -4.867188 5.023438 -4.757812 5.023438 -4.648438 C 5.035156 -4.539062 5.046875 -4.445312 5.046875 -4.347656 C 5.046875 -4.25 5.058594 -4.152344 5.058594 -4.046875 C 5.058594 -3.949219 5.023438 -3.851562 5.023438 -3.753906 C 5.011719 -3.660156 5.046875 -3.550781 5.046875 -3.453125 C 5.035156 -3.332031 5 -3.222656 4.988281 -3.117188 C 4.976562 -3.007812 4.964844 -2.886719 4.9375 -2.789062 C 4.914062 -2.667969 4.867188 -2.570312 4.832031 -2.464844 C 4.792969 -2.355469 4.757812 -2.246094 4.710938 -2.148438 C 4.648438 -2.054688 4.578125 -1.96875 4.503906 -1.882812 C 4.433594 -1.800781 4.335938 -1.738281 4.25 -1.667969 C 4.152344 -1.605469 4.058594 -1.546875 3.949219 -1.496094 C 3.851562 -1.460938 3.742188 -1.4375 3.632812 -1.414062 C 3.527344 -1.390625 3.417969 -1.375 3.296875 -1.375 C 3.1875 -1.363281 3.078125 -1.351562 2.957031 -1.351562 C 2.851562 -1.351562 2.742188 -1.375 2.621094 -1.390625 C 2.511719 -1.402344 2.390625 -1.390625 2.269531 -1.414062 C 2.269531 -1.523438 2.28125 -1.640625 2.28125 -1.75 Z M 2.28125 -1.75 "/></g></g></g><g fill="#000000" fill-opacity="1"><g transform="translate(98.670936, 55.249376)"><g><path d="M 2.378906 -1.558594 C 2.390625 -1.605469 2.488281 -1.679688 2.585938 -1.761719 C 2.667969 -1.824219 2.742188 -1.894531 2.824219 -1.957031 C 2.921875 -2.027344 2.996094 -2.089844 3.066406 -2.148438 C 3.164062 -2.210938 3.261719 -2.269531 3.355469 -2.34375 C 3.453125 -2.402344 3.550781 -2.464844 3.648438 -2.523438 C 3.742188 -2.585938 3.828125 -2.644531 3.925781 -2.703125 C 4.019531 -2.765625 4.128906 -2.8125 4.226562 -2.875 C 4.324219 -2.933594 4.417969 -3.007812 4.515625 -3.066406 C 4.601562 -3.128906 4.683594 -3.210938 4.78125 -3.285156 C 4.855469 -3.34375 4.964844 -3.382812 5.035156 -3.441406 C 5.121094 -3.515625 5.167969 -3.609375 5.242188 -3.683594 C 5.3125 -3.753906 5.363281 -3.851562 5.421875 -3.9375 C 5.480469 -4.007812 5.542969 -4.09375 5.601562 -4.179688 C 5.652344 -4.273438 5.699219 -4.359375 5.746094 -4.457031 C 5.785156 -4.550781 5.832031 -4.636719 5.855469 -4.734375 C 5.894531 -4.84375 5.90625 -4.9375 5.929688 -5.035156 C 5.941406 -5.144531 5.976562 -5.242188 5.976562 -5.347656 C 5.976562 -5.445312 5.964844 -5.554688 5.953125 -5.675781 C 5.929688 -5.773438 5.90625 -5.878906 5.867188 -5.988281 C 5.832031 -6.085938 5.773438 -6.183594 5.722656 -6.277344 C 5.675781 -6.375 5.652344 -6.496094 5.589844 -6.582031 C 5.53125 -6.675781 5.457031 -6.761719 5.386719 -6.847656 C 5.3125 -6.917969 5.214844 -6.992188 5.132812 -7.0625 C 5.058594 -7.125 4.964844 -7.195312 4.867188 -7.246094 C 4.78125 -7.304688 4.683594 -7.355469 4.578125 -7.402344 C 4.480469 -7.449219 4.371094 -7.476562 4.261719 -7.5 C 4.167969 -7.535156 4.070312 -7.582031 3.960938 -7.609375 C 3.851562 -7.632812 3.742188 -7.65625 3.632812 -7.667969 C 3.527344 -7.667969 3.417969 -7.65625 3.296875 -7.65625 C 3.175781 -7.65625 3.054688 -7.667969 2.921875 -7.65625 C 2.800781 -7.632812 2.691406 -7.570312 2.570312 -7.535156 C 2.4375 -7.511719 2.320312 -7.511719 2.199219 -7.476562 C 2.113281 -7.449219 2.015625 -7.378906 1.90625 -7.304688 C 1.824219 -7.246094 1.738281 -7.171875 1.640625 -7.101562 C 1.558594 -7.027344 1.460938 -6.96875 1.390625 -6.882812 C 1.304688 -6.8125 1.253906 -6.703125 1.183594 -6.617188 C 1.097656 -6.53125 1.003906 -6.472656 0.941406 -6.386719 C 0.855469 -6.277344 0.808594 -6.171875 0.785156 -6.097656 C 0.761719 -5.988281 0.738281 -5.90625 0.773438 -5.832031 C 0.808594 -5.746094 0.871094 -5.675781 0.941406 -5.613281 C 1.015625 -5.554688 1.109375 -5.507812 1.171875 -5.46875 C 1.269531 -5.398438 1.375 -5.363281 1.472656 -5.324219 C 1.582031 -5.277344 1.691406 -5.214844 1.789062 -5.242188 C 1.882812 -5.265625 1.980469 -5.324219 2.066406 -5.445312 C 2.125 -5.53125 2.171875 -5.628906 2.234375 -5.710938 C 2.304688 -5.796875 2.367188 -5.894531 2.4375 -5.964844 C 2.523438 -6.050781 2.609375 -6.109375 2.703125 -6.171875 C 2.789062 -6.230469 2.898438 -6.277344 3.007812 -6.304688 C 3.101562 -6.328125 3.210938 -6.328125 3.332031 -6.328125 C 3.453125 -6.328125 3.5625 -6.292969 3.671875 -6.242188 C 3.78125 -6.207031 3.875 -6.160156 3.960938 -6.085938 C 4.058594 -6.011719 4.140625 -5.941406 4.214844 -5.84375 C 4.285156 -5.761719 4.359375 -5.664062 4.394531 -5.566406 C 4.457031 -5.445312 4.480469 -5.324219 4.480469 -5.230469 C 4.480469 -5.121094 4.457031 -5.011719 4.40625 -4.902344 C 4.371094 -4.804688 4.3125 -4.710938 4.226562 -4.613281 C 4.167969 -4.539062 4.09375 -4.457031 3.996094 -4.371094 C 3.914062 -4.300781 3.828125 -4.214844 3.730469 -4.140625 C 3.632812 -4.070312 3.539062 -4.019531 3.441406 -3.949219 C 3.34375 -3.886719 3.234375 -3.828125 3.140625 -3.765625 C 3.042969 -3.695312 2.957031 -3.621094 2.851562 -3.5625 C 2.753906 -3.5 2.644531 -3.441406 2.546875 -3.394531 C 2.4375 -3.332031 2.34375 -3.261719 2.246094 -3.199219 C 2.148438 -3.140625 2.066406 -3.078125 1.96875 -3.007812 C 1.871094 -2.933594 1.789062 -2.863281 1.703125 -2.789062 C 1.617188 -2.703125 1.523438 -2.632812 1.449219 -2.546875 C 1.375 -2.464844 1.316406 -2.367188 1.242188 -2.269531 C 1.183594 -2.171875 1.121094 -2.078125 1.074219 -1.96875 C 1.027344 -1.871094 0.976562 -1.761719 0.941406 -1.65625 C 0.90625 -1.546875 0.84375 -1.449219 0.820312 -1.328125 C 0.796875 -1.230469 0.773438 -1.121094 0.773438 -1.015625 C 0.773438 -0.90625 0.820312 -0.796875 0.832031 -0.699219 C 0.84375 -0.589844 0.832031 -0.472656 0.871094 -0.386719 C 0.90625 -0.277344 0.976562 -0.179688 1.050781 -0.109375 C 1.121094 -0.0351562 1.230469 0 1.339844 0.0117188 C 1.449219 0.0117188 1.558594 -0.0117188 1.667969 -0.0117188 C 1.773438 -0.0117188 1.882812 0 2.003906 0 C 2.113281 0 2.222656 0.0117188 2.332031 0.0117188 C 2.4375 0.0117188 2.546875 0.0117188 2.65625 0.0117188 C 2.777344 0.0117188 2.886719 0.0117188 2.996094 0.0117188 C 3.101562 0.0117188 3.210938 -0.0117188 3.320312 -0.0117188 C 3.429688 -0.0117188 3.550781 -0.0117188 3.660156 -0.0234375 C 3.765625 -0.0234375 3.875 0.0117188 3.984375 0.0117188 C 4.09375 0.0117188 4.214844 -0.0234375 4.324219 -0.0234375 C 4.433594 -0.0351562 4.539062 -0.0117188 4.648438 -0.0234375 C 4.757812 -0.0234375 4.867188 -0.0351562 4.988281 -0.0351562 C 5.097656 -0.0351562 5.203125 -0.0234375 5.3125 -0.0351562 C 5.421875 -0.0351562 5.53125 -0.046875 5.640625 -0.046875 C 5.710938 -0.046875 5.796875 -0.109375 5.84375 -0.21875 C 5.878906 -0.300781 5.90625 -0.398438 5.929688 -0.484375 C 5.953125 -0.578125 5.953125 -0.6875 5.953125 -0.761719 C 5.953125 -0.871094 5.941406 -0.976562 5.894531 -1.0625 C 5.84375 -1.160156 5.761719 -1.230469 5.664062 -1.28125 C 5.578125 -1.328125 5.480469 -1.363281 5.375 -1.363281 C 5.265625 -1.363281 5.15625 -1.390625 5.035156 -1.390625 C 4.925781 -1.390625 4.816406 -1.375 4.699219 -1.363281 C 4.589844 -1.363281 4.480469 -1.351562 4.359375 -1.339844 C 4.285156 -1.328125 4.179688 -1.292969 4.046875 -1.292969 C 3.960938 -1.292969 3.851562 -1.292969 3.742188 -1.292969 C 3.632812 -1.292969 3.539062 -1.316406 3.429688 -1.316406 C 3.320312 -1.316406 3.222656 -1.292969 3.117188 -1.292969 C 3.007812 -1.292969 2.910156 -1.328125 2.8125 -1.328125 C 2.644531 -1.328125 2.535156 -1.328125 2.511719 -1.339844 C 2.4375 -1.375 2.34375 -1.414062 2.378906 -1.558594 Z M 2.378906 -1.558594 "/></g></g></g></svg>