<svg xmlns="http://www.w3.org/2000/svg" xmlns:xlink="http://www.w3.org/1999/xlink" width="150" zoomAndPan="magnify" viewBox="0 0 112.5 112.499997" height="150" preserveAspectRatio="xMidYMid meet" version="1.0"><defs><clipPath id="f7f6fbced0"><path d="M 25.542969 27.058594 L 81.042969 27.058594 L 81.042969 82.558594 L 25.542969 82.558594 Z M 25.542969 27.058594 " clip-rule="nonzero"/></clipPath><clipPath id="08b68f53f4"><path d="M 38.652344 39.949219 L 67.152344 39.949219 L 67.152344 68.449219 L 38.652344 68.449219 Z M 38.652344 39.949219 " clip-rule="nonzero"/></clipPath></defs><path fill="#000000" d="M 54.984375 58.457031 C 55.746094 57.914062 56.207031 57.035156 56.207031 56.082031 C 56.207031 54.476562 54.898438 53.167969 53.285156 53.167969 C 51.679688 53.167969 50.375 54.476562 50.375 56.082031 C 50.375 57.039062 50.835938 57.917969 51.601562 58.457031 L 51 60.855469 C 50.960938 61.015625 51.007812 61.183594 51.125 61.300781 C 51.519531 61.695312 52.40625 61.894531 53.289062 61.894531 C 54.175781 61.894531 55.0625 61.695312 55.457031 61.300781 C 55.574219 61.183594 55.621094 61.015625 55.578125 60.855469 Z M 53.984375 58.351562 L 54.585938 60.765625 C 53.988281 61.027344 52.59375 61.027344 51.996094 60.765625 L 52.601562 58.351562 C 52.65625 58.140625 52.554688 57.921875 52.363281 57.820312 C 51.71875 57.480469 51.316406 56.8125 51.316406 56.082031 C 51.316406 54.996094 52.199219 54.113281 53.285156 54.113281 C 54.378906 54.113281 55.261719 54.996094 55.261719 56.082031 C 55.261719 56.8125 54.863281 57.480469 54.222656 57.820312 C 54.03125 57.921875 53.933594 58.140625 53.984375 58.351562 Z M 53.984375 58.351562 " fill-opacity="1" fill-rule="nonzero"/><path fill="#000000" d="M 61.3125 49.691406 L 60.980469 49.691406 L 60.980469 48.589844 C 60.980469 46.53125 60.183594 44.597656 58.730469 43.152344 C 57.277344 41.699219 55.34375 40.898438 53.289062 40.898438 C 51.238281 40.898438 49.308594 41.699219 47.851562 43.152344 C 46.394531 44.605469 45.597656 46.539062 45.597656 48.589844 L 45.597656 49.691406 L 45.269531 49.691406 C 44.125 49.691406 43.195312 50.621094 43.195312 51.765625 L 43.195312 56.582031 C 43.195312 62.152344 47.722656 66.683594 53.289062 66.683594 C 58.859375 66.683594 63.390625 62.152344 63.390625 56.582031 L 63.390625 51.765625 C 63.390625 50.621094 62.457031 49.691406 61.3125 49.691406 Z M 46.539062 48.589844 C 46.539062 46.789062 47.242188 45.09375 48.515625 43.820312 C 49.796875 42.542969 51.492188 41.839844 53.289062 41.839844 C 55.09375 41.839844 56.789062 42.542969 58.066406 43.820312 C 59.335938 45.085938 60.039062 46.78125 60.039062 48.589844 L 60.039062 49.691406 L 58.175781 49.691406 L 58.175781 48.589844 C 58.175781 45.898438 55.984375 43.707031 53.292969 43.707031 C 50.601562 43.707031 48.410156 45.898438 48.410156 48.589844 L 48.410156 49.691406 L 46.539062 49.691406 Z M 57.234375 48.589844 L 57.234375 49.691406 L 49.351562 49.691406 L 49.351562 48.589844 C 49.351562 46.417969 51.121094 44.648438 53.292969 44.648438 C 55.464844 44.648438 57.234375 46.417969 57.234375 48.589844 Z M 62.449219 56.582031 C 62.449219 61.632812 58.339844 65.738281 53.289062 65.738281 C 48.242188 65.738281 44.136719 61.632812 44.136719 56.582031 L 44.136719 51.765625 C 44.136719 51.140625 44.644531 50.632812 45.269531 50.632812 L 61.3125 50.632812 C 61.9375 50.632812 62.449219 51.140625 62.449219 51.765625 Z M 62.449219 56.582031 " fill-opacity="1" fill-rule="nonzero"/><g clip-path="url(#f7f6fbced0)"><path fill="#000000" d="M 79.558594 66.230469 L 79.558594 60.449219 C 79.558594 60.191406 79.347656 59.980469 79.089844 59.980469 L 71.25 59.980469 C 71.769531 58.476562 72.105469 56.890625 72.230469 55.242188 L 75.207031 55.242188 C 75.421875 56.09375 76.1875 56.726562 77.105469 56.726562 C 78.183594 56.726562 79.058594 55.851562 79.058594 54.773438 C 79.058594 53.695312 78.183594 52.816406 77.105469 52.816406 C 76.1875 52.816406 75.421875 53.449219 75.207031 54.300781 L 72.277344 54.300781 C 72.285156 54.132812 72.285156 53.960938 72.285156 53.789062 C 72.285156 52.382812 72.132812 51.011719 71.839844 49.691406 L 75.621094 49.691406 C 75.882812 49.691406 76.09375 49.480469 76.09375 49.21875 L 76.09375 44.351562 C 76.941406 44.136719 77.574219 43.371094 77.574219 42.453125 C 77.574219 41.378906 76.699219 40.5 75.621094 40.5 C 74.542969 40.5 73.664062 41.378906 73.664062 42.453125 C 73.664062 43.371094 74.296875 44.140625 75.148438 44.351562 L 75.148438 48.75 L 71.605469 48.75 C 69.933594 42.683594 65.324219 37.824219 59.40625 35.808594 L 59.40625 29.480469 L 64.714844 29.480469 C 64.925781 30.332031 65.695312 30.964844 66.609375 30.964844 C 67.6875 30.964844 68.566406 30.089844 68.566406 29.011719 C 68.566406 27.933594 67.6875 27.058594 66.609375 27.058594 C 65.695312 27.058594 64.929688 27.6875 64.714844 28.539062 L 58.933594 28.539062 C 58.675781 28.539062 58.464844 28.75 58.464844 29.007812 L 58.464844 35.511719 C 56.953125 35.085938 55.367188 34.839844 53.730469 34.800781 L 53.730469 32.890625 C 54.578125 32.679688 55.214844 31.910156 55.214844 30.996094 C 55.214844 29.917969 54.335938 29.039062 53.257812 29.039062 C 52.179688 29.039062 51.304688 29.917969 51.304688 30.996094 C 51.304688 31.910156 51.933594 32.679688 52.785156 32.890625 L 52.785156 34.804688 C 51.195312 34.847656 49.648438 35.085938 48.175781 35.496094 L 48.175781 32.476562 C 48.175781 32.21875 47.964844 32.007812 47.707031 32.007812 L 42.835938 32.007812 C 42.625 31.15625 41.855469 30.523438 40.941406 30.523438 C 39.863281 30.523438 38.984375 31.402344 38.984375 32.476562 C 38.984375 33.558594 39.863281 34.433594 40.941406 34.433594 C 41.855469 34.433594 42.625 33.800781 42.835938 32.949219 L 47.234375 32.949219 L 47.234375 35.789062 C 41.308594 37.785156 36.683594 42.632812 34.996094 48.691406 L 27.96875 48.691406 L 27.96875 43.382812 C 28.816406 43.171875 29.453125 42.402344 29.453125 41.488281 C 29.453125 40.410156 28.574219 39.535156 27.496094 39.535156 C 26.417969 39.535156 25.542969 40.410156 25.542969 41.488281 C 25.542969 42.402344 26.175781 43.171875 27.023438 43.382812 L 27.023438 49.164062 C 27.023438 49.421875 27.234375 49.632812 27.496094 49.632812 L 34.757812 49.632812 C 34.457031 50.972656 34.296875 52.363281 34.296875 53.789062 C 34.296875 53.984375 34.300781 54.175781 34.308594 54.367188 L 31.375 54.367188 C 31.164062 53.519531 30.394531 52.886719 29.480469 52.886719 C 28.402344 52.886719 27.523438 53.761719 27.523438 54.839844 C 27.523438 55.917969 28.402344 56.796875 29.480469 56.796875 C 30.394531 56.796875 31.164062 56.164062 31.375 55.3125 L 34.359375 55.3125 C 34.488281 56.914062 34.8125 58.457031 35.3125 59.921875 L 30.964844 59.921875 C 30.703125 59.921875 30.492188 60.132812 30.492188 60.390625 L 30.492188 65.261719 C 29.640625 65.472656 29.007812 66.242188 29.007812 67.160156 C 29.007812 68.238281 29.886719 69.113281 30.964844 69.113281 C 32.042969 69.113281 32.917969 68.238281 32.917969 67.160156 C 32.917969 66.242188 32.285156 65.472656 31.433594 65.261719 L 31.433594 60.863281 L 35.664062 60.863281 C 37.722656 65.972656 41.9375 69.988281 47.175781 71.773438 L 47.175781 80.128906 L 41.867188 80.128906 C 41.65625 79.28125 40.886719 78.648438 39.972656 78.648438 C 38.894531 78.648438 38.019531 79.523438 38.019531 80.601562 C 38.019531 81.679688 38.894531 82.558594 39.972656 82.558594 C 40.886719 82.558594 41.65625 81.925781 41.867188 81.074219 L 47.648438 81.074219 C 47.910156 81.074219 48.121094 80.863281 48.121094 80.601562 L 48.121094 72.066406 C 49.628906 72.496094 51.21875 72.742188 52.855469 72.777344 L 52.855469 76.722656 C 52.003906 76.933594 51.371094 77.703125 51.371094 78.621094 C 51.371094 79.695312 52.25 80.574219 53.328125 80.574219 C 54.40625 80.574219 55.28125 79.695312 55.28125 78.621094 C 55.28125 77.703125 54.648438 76.933594 53.796875 76.722656 L 53.796875 72.777344 C 55.390625 72.734375 56.933594 72.496094 58.40625 72.085938 L 58.40625 77.132812 C 58.40625 77.230469 58.4375 77.320312 58.484375 77.394531 C 58.488281 77.394531 58.488281 77.398438 58.488281 77.398438 C 58.492188 77.40625 58.5 77.414062 58.507812 77.421875 C 58.519531 77.4375 58.53125 77.453125 58.546875 77.46875 C 58.632812 77.558594 58.753906 77.605469 58.878906 77.605469 L 63.75 77.605469 C 63.960938 78.457031 64.730469 79.089844 65.644531 79.089844 C 66.722656 79.089844 67.601562 78.210938 67.601562 77.136719 C 67.601562 76.054688 66.722656 75.179688 65.644531 75.179688 C 64.730469 75.179688 63.960938 75.8125 63.75 76.664062 L 59.351562 76.664062 L 59.351562 71.792969 C 64.597656 70.023438 68.820312 66.019531 70.894531 60.921875 L 78.617188 60.921875 L 78.617188 66.230469 C 77.765625 66.441406 77.132812 67.210938 77.132812 68.125 C 77.132812 69.203125 78.007812 70.078125 79.089844 70.078125 C 80.167969 70.078125 81.042969 69.203125 81.042969 68.125 C 81.042969 67.210938 80.410156 66.441406 79.558594 66.230469 Z M 76.09375 54.773438 C 76.09375 54.769531 76.09375 54.769531 76.09375 54.769531 C 76.09375 54.210938 76.546875 53.757812 77.105469 53.757812 C 77.664062 53.757812 78.117188 54.214844 78.117188 54.773438 C 78.117188 55.332031 77.664062 55.785156 77.105469 55.785156 C 76.546875 55.785156 76.09375 55.332031 76.09375 54.777344 Z M 74.605469 42.453125 C 74.605469 41.894531 75.0625 41.441406 75.621094 41.441406 C 76.179688 41.441406 76.632812 41.894531 76.632812 42.453125 C 76.632812 43.011719 76.179688 43.46875 75.621094 43.46875 C 75.0625 43.46875 74.605469 43.011719 74.605469 42.453125 Z M 66.609375 28 C 67.167969 28 67.625 28.453125 67.625 29.011719 C 67.625 29.570312 67.167969 30.023438 66.609375 30.023438 C 66.050781 30.023438 65.597656 29.570312 65.597656 29.011719 C 65.597656 28.453125 66.050781 28 66.609375 28 Z M 40.941406 33.492188 C 40.382812 33.492188 39.925781 33.035156 39.925781 32.476562 C 39.925781 31.921875 40.382812 31.464844 40.941406 31.464844 C 41.5 31.464844 41.953125 31.921875 41.953125 32.476562 C 41.953125 33.035156 41.5 33.492188 40.941406 33.492188 Z M 26.484375 41.488281 C 26.484375 40.929688 26.9375 40.476562 27.496094 40.476562 C 28.054688 40.476562 28.507812 40.929688 28.507812 41.488281 C 28.507812 42.046875 28.054688 42.5 27.496094 42.5 C 26.9375 42.5 26.484375 42.046875 26.484375 41.488281 Z M 29.480469 55.855469 C 28.921875 55.855469 28.46875 55.398438 28.46875 54.839844 C 28.46875 54.28125 28.921875 53.828125 29.480469 53.828125 C 30.039062 53.828125 30.492188 54.28125 30.492188 54.839844 C 30.492188 55.398438 30.039062 55.855469 29.480469 55.855469 Z M 31.976562 67.160156 C 31.976562 67.71875 31.523438 68.171875 30.964844 68.171875 C 30.40625 68.171875 29.949219 67.71875 29.949219 67.160156 C 29.949219 66.601562 30.40625 66.144531 30.964844 66.144531 C 31.523438 66.144531 31.976562 66.601562 31.976562 67.160156 Z M 39.972656 81.613281 C 39.414062 81.613281 38.960938 81.160156 38.960938 80.601562 C 38.960938 80.042969 39.414062 79.589844 39.972656 79.589844 C 40.53125 79.589844 40.984375 80.042969 40.984375 80.601562 C 40.984375 81.160156 40.53125 81.613281 39.972656 81.613281 Z M 65.644531 76.121094 C 66.203125 76.121094 66.65625 76.574219 66.65625 77.136719 C 66.65625 77.691406 66.203125 78.148438 65.644531 78.148438 C 65.085938 78.148438 64.632812 77.695312 64.632812 77.136719 C 64.632812 76.578125 65.085938 76.121094 65.644531 76.121094 Z M 52.246094 30.996094 C 52.246094 30.4375 52.699219 29.980469 53.257812 29.980469 C 53.816406 29.980469 54.269531 30.4375 54.269531 30.996094 C 54.269531 31.550781 53.816406 32.007812 53.257812 32.007812 C 52.699219 32.007812 52.246094 31.550781 52.246094 30.996094 Z M 54.339844 78.621094 C 54.339844 79.175781 53.886719 79.632812 53.328125 79.632812 C 52.769531 79.632812 52.3125 79.175781 52.3125 78.621094 C 52.3125 78.0625 52.765625 77.609375 53.324219 77.605469 C 53.324219 77.605469 53.324219 77.605469 53.328125 77.605469 C 53.886719 77.609375 54.339844 78.0625 54.339844 78.621094 Z M 53.292969 71.84375 C 43.339844 71.84375 35.242188 63.746094 35.242188 53.789062 C 35.242188 43.835938 43.339844 35.738281 53.292969 35.738281 C 63.246094 35.738281 71.34375 43.835938 71.34375 53.789062 C 71.34375 63.746094 63.246094 71.84375 53.292969 71.84375 Z M 79.089844 69.136719 C 78.527344 69.136719 78.074219 68.683594 78.074219 68.125 C 78.074219 67.566406 78.527344 67.113281 79.089844 67.113281 C 79.648438 67.113281 80.101562 67.566406 80.101562 68.125 C 80.101562 68.683594 79.648438 69.136719 79.089844 69.136719 Z M 79.089844 69.136719 " fill-opacity="1" fill-rule="nonzero"/></g><path fill="#0873c1" d="M 80.101562 68.125 C 80.101562 68.683594 79.648438 69.136719 79.089844 69.136719 C 78.527344 69.136719 78.074219 68.683594 78.074219 68.125 C 78.074219 67.566406 78.527344 67.113281 79.089844 67.113281 C 79.648438 67.113281 80.101562 67.566406 80.101562 68.125 Z M 80.101562 68.125 " fill-opacity="1" fill-rule="nonzero"/><path fill="#0873c1" d="M 78.117188 54.773438 C 78.117188 55.332031 77.664062 55.785156 77.105469 55.785156 C 76.546875 55.785156 76.09375 55.332031 76.09375 54.777344 L 76.09375 54.773438 C 76.09375 54.773438 76.09375 54.769531 76.09375 54.769531 C 76.09375 54.210938 76.546875 53.761719 77.105469 53.761719 C 77.664062 53.761719 78.117188 54.214844 78.117188 54.773438 Z M 78.117188 54.773438 " fill-opacity="1" fill-rule="nonzero"/><path fill="#0873c1" d="M 76.632812 42.453125 C 76.632812 43.011719 76.179688 43.46875 75.621094 43.46875 C 75.0625 43.46875 74.605469 43.011719 74.605469 42.453125 C 74.605469 41.894531 75.0625 41.441406 75.621094 41.441406 C 76.179688 41.441406 76.632812 41.894531 76.632812 42.453125 Z M 76.632812 42.453125 " fill-opacity="1" fill-rule="nonzero"/><path fill="#0873c1" d="M 67.625 29.011719 C 67.625 29.570312 67.167969 30.023438 66.609375 30.023438 C 66.050781 30.023438 65.597656 29.570312 65.597656 29.011719 C 65.597656 28.453125 66.050781 28 66.609375 28 C 67.167969 28 67.625 28.453125 67.625 29.011719 Z M 67.625 29.011719 " fill-opacity="1" fill-rule="nonzero"/><path fill="#0873c1" d="M 54.269531 30.996094 C 54.269531 31.550781 53.816406 32.007812 53.257812 32.007812 C 52.699219 32.007812 52.246094 31.550781 52.246094 30.996094 C 52.246094 30.4375 52.699219 29.980469 53.257812 29.980469 C 53.816406 29.980469 54.269531 30.4375 54.269531 30.996094 Z M 54.269531 30.996094 " fill-opacity="1" fill-rule="nonzero"/><path fill="#0873c1" d="M 41.953125 32.476562 C 41.953125 33.035156 41.5 33.492188 40.941406 33.492188 C 40.382812 33.492188 39.925781 33.035156 39.925781 32.476562 C 39.925781 31.921875 40.382812 31.464844 40.941406 31.464844 C 41.5 31.464844 41.953125 31.921875 41.953125 32.476562 Z M 41.953125 32.476562 " fill-opacity="1" fill-rule="nonzero"/><path fill="#0873c1" d="M 28.507812 41.488281 C 28.507812 42.046875 28.054688 42.5 27.496094 42.5 C 26.9375 42.5 26.484375 42.046875 26.484375 41.488281 C 26.484375 40.929688 26.9375 40.476562 27.496094 40.476562 C 28.054688 40.476562 28.507812 40.929688 28.507812 41.488281 Z M 28.507812 41.488281 " fill-opacity="1" fill-rule="nonzero"/><path fill="#0873c1" d="M 30.492188 54.839844 C 30.492188 55.398438 30.039062 55.855469 29.480469 55.855469 C 28.921875 55.855469 28.46875 55.398438 28.46875 54.839844 C 28.46875 54.28125 28.921875 53.828125 29.480469 53.828125 C 30.039062 53.828125 30.492188 54.28125 30.492188 54.839844 Z M 30.492188 54.839844 " fill-opacity="1" fill-rule="nonzero"/><path fill="#0873c1" d="M 31.976562 67.160156 C 31.976562 67.71875 31.523438 68.171875 30.964844 68.171875 C 30.40625 68.171875 29.949219 67.71875 29.949219 67.160156 C 29.949219 66.601562 30.40625 66.144531 30.964844 66.144531 C 31.523438 66.144531 31.976562 66.601562 31.976562 67.160156 Z M 31.976562 67.160156 " fill-opacity="1" fill-rule="nonzero"/><path fill="#0873c1" d="M 40.984375 80.601562 C 40.984375 81.160156 40.53125 81.613281 39.972656 81.613281 C 39.414062 81.613281 38.960938 81.160156 38.960938 80.601562 C 38.960938 80.042969 39.414062 79.589844 39.972656 79.589844 C 40.53125 79.589844 40.984375 80.042969 40.984375 80.601562 Z M 40.984375 80.601562 " fill-opacity="1" fill-rule="nonzero"/><path fill="#0873c1" d="M 54.339844 78.621094 C 54.339844 79.175781 53.886719 79.632812 53.328125 79.632812 C 52.769531 79.632812 52.3125 79.175781 52.3125 78.621094 C 52.3125 78.0625 52.765625 77.609375 53.324219 77.605469 C 53.324219 77.605469 53.324219 77.605469 53.328125 77.605469 C 53.886719 77.609375 54.339844 78.0625 54.339844 78.621094 Z M 54.339844 78.621094 " fill-opacity="1" fill-rule="nonzero"/><path fill="#0873c1" d="M 66.65625 77.136719 C 66.65625 77.691406 66.203125 78.148438 65.644531 78.148438 C 65.085938 78.148438 64.632812 77.695312 64.632812 77.136719 C 64.632812 76.578125 65.085938 76.121094 65.644531 76.121094 C 66.203125 76.121094 66.65625 76.574219 66.65625 77.136719 Z M 66.65625 77.136719 " fill-opacity="1" fill-rule="nonzero"/><path fill="#0873c1" d="M 53.292969 35.738281 C 43.339844 35.738281 35.242188 43.835938 35.242188 53.789062 C 35.242188 63.746094 43.339844 71.84375 53.292969 71.84375 C 63.246094 71.84375 71.34375 63.746094 71.34375 53.789062 C 71.34375 43.835938 63.246094 35.738281 53.292969 35.738281 Z M 63.390625 56.582031 C 63.390625 62.152344 58.859375 66.683594 53.289062 66.683594 C 47.722656 66.683594 43.195312 62.152344 43.195312 56.582031 L 43.195312 51.765625 C 43.195312 50.621094 44.125 49.691406 45.269531 49.691406 L 45.597656 49.691406 L 45.597656 48.589844 C 45.597656 46.535156 46.394531 44.605469 47.851562 43.152344 C 49.308594 41.699219 51.238281 40.898438 53.289062 40.898438 C 55.34375 40.898438 57.277344 41.699219 58.730469 43.152344 C 60.183594 44.597656 60.980469 46.53125 60.980469 48.589844 L 60.980469 49.691406 L 61.3125 49.691406 C 62.457031 49.691406 63.390625 50.621094 63.390625 51.765625 Z M 63.390625 56.582031 " fill-opacity="1" fill-rule="nonzero"/><path fill="#0873c1" d="M 53.984375 58.351562 L 54.585938 60.765625 C 53.988281 61.027344 52.59375 61.027344 51.996094 60.765625 L 52.601562 58.351562 C 52.65625 58.140625 52.554688 57.921875 52.363281 57.820312 C 51.71875 57.480469 51.316406 56.8125 51.316406 56.082031 C 51.316406 54.996094 52.199219 54.113281 53.285156 54.113281 C 54.378906 54.113281 55.261719 54.996094 55.261719 56.082031 C 55.261719 56.8125 54.863281 57.480469 54.222656 57.820312 C 54.03125 57.921875 53.933594 58.140625 53.984375 58.351562 Z M 53.984375 58.351562 " fill-opacity="1" fill-rule="nonzero"/><path fill="#0873c1" d="M 57.234375 48.589844 L 57.234375 49.691406 L 49.351562 49.691406 L 49.351562 48.589844 C 49.351562 46.417969 51.121094 44.648438 53.292969 44.648438 C 55.464844 44.648438 57.234375 46.417969 57.234375 48.589844 Z M 57.234375 48.589844 " fill-opacity="1" fill-rule="nonzero"/><g clip-path="url(#08b68f53f4)"><path fill="#0873c1" d="M 67.15625 54.203125 C 67.15625 55.140625 67.066406 56.066406 66.882812 56.984375 C 66.699219 57.902344 66.429688 58.792969 66.070312 59.65625 C 65.714844 60.523438 65.273438 61.34375 64.753906 62.121094 C 64.234375 62.898438 63.644531 63.617188 62.984375 64.28125 C 62.320312 64.941406 61.601562 65.53125 60.824219 66.054688 C 60.046875 66.574219 59.222656 67.011719 58.359375 67.371094 C 57.496094 67.726562 56.605469 68 55.6875 68.179688 C 54.769531 68.363281 53.839844 68.453125 52.90625 68.453125 C 51.96875 68.453125 51.042969 68.363281 50.125 68.179688 C 49.207031 68 48.316406 67.726562 47.453125 67.371094 C 46.585938 67.011719 45.765625 66.574219 44.988281 66.054688 C 44.210938 65.53125 43.492188 64.941406 42.828125 64.28125 C 42.167969 63.617188 41.578125 62.898438 41.058594 62.121094 C 40.535156 61.34375 40.097656 60.523438 39.738281 59.65625 C 39.382812 58.792969 39.113281 57.902344 38.929688 56.984375 C 38.746094 56.066406 38.65625 55.140625 38.65625 54.203125 C 38.65625 53.269531 38.746094 52.339844 38.929688 51.421875 C 39.113281 50.503906 39.382812 49.613281 39.738281 48.75 C 40.097656 47.886719 40.535156 47.0625 41.058594 46.285156 C 41.578125 45.507812 42.167969 44.789062 42.828125 44.125 C 43.492188 43.464844 44.210938 42.875 44.988281 42.355469 C 45.765625 41.835938 46.585938 41.394531 47.453125 41.039062 C 48.316406 40.679688 49.207031 40.410156 50.125 40.226562 C 51.042969 40.042969 51.96875 39.953125 52.90625 39.953125 C 53.839844 39.953125 54.769531 40.042969 55.6875 40.226562 C 56.605469 40.410156 57.496094 40.679688 58.359375 41.039062 C 59.222656 41.394531 60.046875 41.835938 60.824219 42.355469 C 61.601562 42.875 62.320312 43.464844 62.984375 44.125 C 63.644531 44.789062 64.234375 45.507812 64.753906 46.285156 C 65.273438 47.0625 65.714844 47.886719 66.070312 48.75 C 66.429688 49.613281 66.699219 50.503906 66.882812 51.421875 C 67.066406 52.339844 67.15625 53.269531 67.15625 54.203125 Z M 67.15625 54.203125 " fill-opacity="1" fill-rule="nonzero"/></g><path fill="#0873c1" d="M 44.679688 44.390625 L 57.078125 44.390625 L 57.078125 64.015625 L 44.679688 64.015625 Z M 44.679688 44.390625 " fill-opacity="1" fill-rule="nonzero"/><path fill="#002e35" d="M 45.804688 45.738281 L 55.953125 45.738281 L 55.953125 62.671875 L 45.804688 62.671875 Z M 45.804688 45.738281 " fill-opacity="1" fill-rule="nonzero"/><path fill="#ffffff" d="M 47.007812 47.46875 L 54.417969 47.46875 L 54.417969 48.867188 L 47.007812 48.867188 Z M 47.007812 47.46875 " fill-opacity="1" fill-rule="nonzero"/><path fill="#ffffff" d="M 47.007812 50.316406 L 54.417969 50.316406 L 54.417969 51.714844 L 47.007812 51.714844 Z M 47.007812 50.316406 " fill-opacity="1" fill-rule="nonzero"/><path fill="#ffffff" d="M 52.238281 59.683594 C 52.238281 59.863281 52.203125 60.035156 52.132812 60.203125 C 52.066406 60.367188 51.96875 60.515625 51.839844 60.640625 C 51.710938 60.769531 51.566406 60.867188 51.398438 60.9375 C 51.234375 61.003906 51.058594 61.039062 50.878906 61.039062 C 50.699219 61.039062 50.527344 61.003906 50.359375 60.9375 C 50.195312 60.867188 50.046875 60.769531 49.921875 60.640625 C 49.792969 60.515625 49.695312 60.367188 49.625 60.203125 C 49.558594 60.035156 49.523438 59.863281 49.523438 59.683594 C 49.523438 59.503906 49.558594 59.328125 49.625 59.164062 C 49.695312 58.996094 49.792969 58.851562 49.921875 58.722656 C 50.046875 58.59375 50.195312 58.496094 50.359375 58.429688 C 50.527344 58.359375 50.699219 58.324219 50.878906 58.324219 C 51.058594 58.324219 51.234375 58.359375 51.398438 58.429688 C 51.566406 58.496094 51.710938 58.59375 51.839844 58.722656 C 51.96875 58.851562 52.066406 58.996094 52.132812 59.164062 C 52.203125 59.328125 52.238281 59.503906 52.238281 59.683594 Z M 52.238281 59.683594 " fill-opacity="1" fill-rule="nonzero"/><path fill="#0873c1" d="M 61.691406 52.722656 L 61.691406 57.074219 C 61.539062 60.964844 56.503906 62.261719 56.503906 62.261719 C 56.503906 62.261719 51.46875 60.964844 51.320312 57.074219 L 51.320312 52.722656 L 56.503906 50.703125 Z M 61.691406 52.722656 " fill-opacity="1" fill-rule="nonzero"/><path fill="#ffffff" d="M 61.691406 52.722656 L 61.691406 57.074219 C 61.539062 60.964844 56.503906 62.261719 56.503906 62.261719 L 56.503906 50.703125 Z M 61.691406 52.722656 " fill-opacity="1" fill-rule="nonzero"/><path fill="#ffffff" d="M 60.332031 53.710938 L 60.332031 56.917969 C 60.21875 59.785156 56.503906 60.742188 56.503906 60.742188 C 56.503906 60.742188 52.792969 59.785156 52.679688 56.917969 L 52.679688 53.710938 L 56.503906 52.222656 Z M 60.332031 53.710938 " fill-opacity="1" fill-rule="nonzero"/><path fill="#0873c1" d="M 60.332031 53.710938 L 60.332031 56.917969 C 60.21875 59.785156 56.503906 60.742188 56.503906 60.742188 L 56.503906 52.222656 Z M 60.332031 53.710938 " fill-opacity="1" fill-rule="nonzero"/></svg>